<?xml version="1.0" standalone="no"?>
<!DOCTYPE svg PUBLIC "-//W3C//DTD SVG 20010904//EN"
 "http://www.w3.org/TR/2001/REC-SVG-20010904/DTD/svg10.dtd">
<svg version="1.0" xmlns="http://www.w3.org/2000/svg"
 width="512.000000pt" height="512.000000pt" viewBox="0 0 512.000000 512.000000"
 preserveAspectRatio="xMidYMid meet">
<metadata>
Created by potrace 1.16, written by Peter Selinger 2001-2019
</metadata>
<g transform="translate(0.000000,512.000000) scale(0.100000,-0.100000)"
fill="#000000" stroke="none">
<path d="M0 5095 c0 -22 4 -25 38 -25 60 0 82 10 81 34 -1 17 -2 17 -6 4 -5
-22 -22 -23 -29 -3 -4 10 -20 15 -45 15 -35 0 -39 -3 -39 -25z"/>
<path d="M160 5101 c0 -26 12 -32 49 -25 21 5 31 12 31 25 0 15 -8 19 -40 19
-33 0 -40 -3 -40 -19z"/>
<path d="M276 5098 c-3 -13 -6 -69 -6 -125 l0 -103 50 0 c43 0 50 -3 50 -20 0
-17 -7 -20 -50 -20 l-50 0 0 -130 0 -130 60 0 60 0 0 55 c0 42 -3 55 -15 55
-8 0 -15 9 -15 20 0 11 7 20 15 20 13 0 15 27 15 184 0 101 -3 191 -6 200 -4
12 -20 16 -54 16 -41 0 -49 -3 -54 -22z"/>
<path d="M430 5099 c0 -17 5 -20 37 -17 27 2 39 8 41 21 3 14 -4 17 -37 17
-35 0 -41 -3 -41 -21z"/>
<path d="M540 5099 c0 -20 4 -20 160 -17 136 3 162 6 177 21 16 16 9 17 -160
17 -172 0 -177 -1 -177 -21z"/>
<path d="M1000 5111 c-27 -4 -63 -20 -89 -39 l-44 -32 -164 0 -163 0 0 -72 0
-73 65 -60 c49 -46 65 -67 65 -88 0 -17 5 -27 15 -27 8 0 15 9 15 20 0 30 25
75 55 98 23 18 24 21 7 26 -27 9 -115 103 -108 115 12 18 35 12 51 -13 9 -13
48 -46 88 -74 39 -29 78 -61 85 -72 15 -25 79 -27 123 -5 31 17 49 13 49 -10
0 -20 -30 -34 -82 -37 l-46 -3 16 -27 c15 -25 22 -28 74 -28 l58 0 0 139 0
140 -28 -10 c-16 -5 -67 -9 -113 -7 -70 3 -84 6 -87 21 -3 15 6 17 82 17 98 0
134 13 142 49 3 14 8 34 11 44 5 19 0 19 -77 8z m-90 -226 c0 -8 -9 -15 -20
-15 -11 0 -20 7 -20 15 0 8 9 15 20 15 11 0 20 -7 20 -15z"/>
<path d="M1116 5104 c-10 -25 -1 -27 19 -4 15 17 16 20 3 20 -9 0 -19 -7 -22
-16z"/>
<path d="M1240 4911 l0 -208 50 -6 c57 -7 95 -32 126 -83 20 -32 21 -45 16
-209 -5 -170 -4 -175 15 -175 15 0 22 9 27 30 3 18 12 30 21 30 12 0 15 -17
15 -95 0 -52 3 -95 7 -95 4 0 20 12 35 27 27 26 28 30 28 130 0 101 0 103 -22
100 -30 -3 -39 38 -10 45 39 10 51 47 44 124 l-7 71 -116 106 c-64 58 -131
124 -149 146 -18 24 -39 40 -49 39 -11 -2 -17 5 -19 25 -6 47 26 32 106 -54
68 -72 77 -78 84 -60 9 25 50 46 72 38 25 -10 19 -24 -19 -50 l-35 -24 65 -61
65 -60 0 133 c0 167 2 165 -121 165 -87 0 -92 1 -120 29 -26 26 -29 36 -29 90
l0 61 -40 0 -40 0 0 -209z m235 -7 c0 -12 -8 -20 -22 -22 -17 -3 -23 2 -23 16
0 20 16 33 35 28 6 -2 10 -11 10 -22z m-150 -165 c0 -17 -6 -25 -22 -27 -19
-3 -23 1 -23 21 0 25 14 38 35 33 6 -2 10 -14 10 -27z m195 -224 c26 -32 -13
-81 -47 -59 -35 22 -23 74 17 74 10 0 23 -7 30 -15z"/>
<path d="M1352 5068 c8 -76 27 -88 140 -88 81 0 91 -2 113 -25 24 -23 25 -29
25 -158 0 -99 4 -138 14 -153 8 -10 17 -16 20 -13 4 3 10 47 15 97 8 91 19
120 64 170 16 17 20 33 18 76 -3 67 9 91 52 105 61 20 105 -12 110 -79 2 -29
4 -30 50 -30 l47 0 0 75 0 75 -170 0 -170 0 0 -40 c0 -30 -7 -47 -25 -65 -21
-22 -33 -25 -93 -25 -39 0 -73 5 -80 12 -7 7 -12 36 -12 65 l0 53 -61 0 -62 0
5 -52z"/>
<path d="M1506 5089 c-8 -43 8 -59 59 -59 65 0 75 7 75 51 l0 39 -64 0 c-63 0
-64 0 -70 -31z"/>
<path d="M2060 5045 l0 -75 70 0 70 0 0 75 0 75 -70 0 -70 0 0 -75z"/>
<path d="M2240 5045 c0 -73 1 -75 25 -75 43 0 65 33 65 95 l0 55 -45 0 -45 0
0 -75z"/>
<path d="M2372 5057 c-2 -34 -5 -120 -5 -192 l-2 -130 38 -3 37 -3 0 195 0
196 -32 0 -33 0 -3 -63z"/>
<path d="M2472 5049 c-1 -42 1 -131 5 -197 l6 -122 38 0 c25 0 47 -8 64 -22
25 -22 32 -23 199 -20 l173 3 6 45 c7 68 60 127 131 149 18 5 18 7 -5 31 -60
65 -120 64 -172 -1 l-28 -35 -202 2 -202 3 -5 120 c-5 97 -6 106 -8 44z m178
-273 c0 -8 -9 -24 -19 -37 -15 -19 -22 -21 -32 -12 -9 9 -6 18 11 42 21 30 40
33 40 7z"/>
<path d="M2512 5023 l3 -98 174 -3 175 -2 42 41 c56 55 108 63 163 24 22 -15
50 -42 63 -61 13 -19 26 -34 29 -34 5 0 5 81 1 133 -2 15 -15 17 -118 17 -106
0 -118 -2 -152 -25 -43 -29 -116 -34 -161 -11 -30 16 -101 90 -101 106 0 6
-27 10 -60 10 l-61 0 3 -97z"/>
<path d="M2682 5098 c45 -69 141 -89 197 -42 17 14 31 34 31 45 0 18 -9 19
-121 19 l-121 0 14 -22z"/>
<path d="M2950 5100 c0 -19 7 -20 106 -20 143 0 144 -1 144 -104 l0 -83 72 -8
c83 -8 129 -28 178 -80 72 -75 70 -78 70 122 l0 178 -19 -31 c-28 -46 -69 -74
-107 -74 l-34 0 0 -50 c0 -27 -4 -51 -10 -51 -5 -1 -15 -2 -21 -3 -8 -1 -11
33 -10 112 l2 112 -185 0 c-179 0 -186 -1 -186 -20z"/>
<path d="M3360 5086 c0 -38 24 -51 64 -36 20 7 56 49 56 65 0 3 -27 5 -60 5
l-60 0 0 -34z"/>
<path d="M3630 5117 c0 -2 15 -16 33 -33 l32 -29 -29 33 c-28 30 -36 37 -36
29z"/>
<path d="M3730 5070 c23 -27 44 -50 46 -50 2 0 4 23 4 50 l0 50 -46 0 -46 0
42 -50z"/>
<path d="M3822 5048 c3 -69 4 -73 30 -82 15 -5 29 -8 31 -5 3 2 7 39 11 82 l7
77 -41 0 -41 0 3 -72z"/>
<path d="M3990 5099 c11 -20 12 -20 31 -3 25 23 24 24 -11 24 -28 0 -30 -2
-20 -21z"/>
<path d="M4070 5090 l-35 -29 28 -29 c18 -19 31 -45 34 -71 l6 -41 98 0 99 0
0 48 c0 26 -3 71 -6 100 l-7 52 -91 0 c-86 -1 -93 -2 -126 -30z"/>
<path d="M4340 5100 c0 -23 37 -28 71 -10 32 18 21 30 -26 30 -38 0 -45 -3
-45 -20z"/>
<path d="M4448 5078 c-32 -35 -41 -40 -72 -36 l-36 4 0 -62 0 -61 42 -6 c47
-6 78 -35 78 -72 0 -39 11 -55 36 -55 23 0 24 2 24 79 0 44 3 86 6 95 8 22 54
21 54 0 0 -13 3 -14 15 -4 18 15 45 6 45 -15 0 -20 -28 -31 -43 -16 -28 28
-37 12 -37 -68 0 -71 -2 -82 -22 -95 -12 -9 -35 -16 -50 -16 -42 0 -60 24 -70
95 -3 16 -12 21 -46 23 l-42 3 0 -60 c0 -66 10 -82 66 -106 19 -8 37 -21 40
-30 3 -8 17 -15 29 -15 13 0 26 -4 29 -9 3 -4 35 -11 72 -15 60 -6 68 -5 81
14 9 12 25 20 44 20 l29 0 0 98 c0 53 -3 154 -7 225 l-6 127 -111 -1 -111 0
-37 -41z m186 24 c7 -12 -9 -67 -19 -67 -10 0 -26 55 -19 67 3 4 11 8 19 8 8
0 16 -4 19 -8z"/>
<path d="M4754 5104 c3 -9 6 -21 6 -28 0 -9 20 -14 68 -15 37 -1 82 -4 101 -8
37 -6 37 1 -2 45 -18 19 -30 22 -100 22 -68 0 -78 -2 -73 -16z m84 -22 c2 -7
-6 -12 -17 -12 -21 0 -27 11 -14 24 9 9 26 2 31 -12z"/>
<path d="M4987 5095 c22 -30 39 -32 53 -6 15 29 13 31 -30 31 l-41 0 18 -25z"/>
<path d="M5090 5095 c-5 -13 -18 -33 -29 -44 -19 -19 -19 -19 20 -57 l39 -38
0 82 c0 83 -12 105 -30 57z"/>
<path d="M3565 5038 c-4 -40 -5 -175 -3 -300 l3 -228 32 -11 c52 -17 83 -62
83 -120 l0 -49 45 0 45 0 0 150 0 150 -25 0 c-14 0 -45 -6 -71 -12 -45 -12
-47 -12 -70 15 -19 22 -24 39 -24 83 0 61 15 95 59 138 20 19 34 46 42 82 l12
53 -53 60 c-28 34 -56 61 -60 61 -5 0 -11 -33 -15 -72z"/>
<path d="M3931 5035 c-18 -108 -14 -115 65 -115 64 0 64 0 64 29 0 22 -11 37
-46 66 -26 21 -52 51 -58 67 -12 27 -13 24 -25 -47z"/>
<path d="M1150 5057 l-45 -42 3 -152 3 -153 45 0 44 0 0 195 c0 107 -1 195 -2
195 -2 -1 -23 -20 -48 -43z"/>
<path d="M1828 5043 c-19 -5 -32 -40 -26 -70 3 -14 11 -17 38 -14 50 5 67 42
34 75 -16 17 -17 17 -46 9z"/>
<path d="M60 5031 l-55 -6 -3 -76 c-3 -75 -2 -77 23 -83 35 -9 35 -46 0 -46
l-25 0 0 -160 c0 -88 3 -160 8 -160 4 0 16 13 27 28 14 20 21 47 23 102 4 80
13 100 43 100 18 0 19 10 19 155 0 85 -1 154 -2 153 -2 -1 -28 -4 -58 -7z"/>
<path d="M160 4884 l0 -154 40 0 40 0 0 153 0 153 -40 1 -40 2 0 -155z"/>
<path d="M430 4804 c0 -143 -4 -243 -10 -255 -9 -16 -22 -19 -78 -19 -139 -1
-197 -29 -209 -102 -9 -61 5 -104 59 -172 49 -61 53 -64 86 -59 29 5 34 3 31
-12 -4 -18 -18 -29 -51 -39 -13 -4 -18 -16 -18 -41 l0 -35 63 0 c95 0 135 10
168 41 l30 28 -3 113 -3 113 -128 2 c-121 1 -157 9 -157 34 0 16 41 32 53 20
7 -7 57 -11 129 -11 l118 0 0 156 c0 142 -2 158 -22 194 -21 36 -21 42 -9 92
7 29 15 83 18 121 l5 67 -36 0 -36 0 0 -236z m-30 -534 c0 -11 -6 -20 -14 -20
-18 0 -29 16 -21 30 11 18 35 11 35 -10z"/>
<path d="M4873 5012 l-113 -3 0 -27 c0 -22 15 -39 73 -84 83 -66 130 -77 141
-33 4 14 13 25 21 25 8 0 17 -11 21 -25 6 -22 11 -25 55 -25 48 0 49 1 49 29
0 23 -13 42 -61 88 -33 32 -64 58 -67 58 -4 0 -58 -1 -119 -3z"/>
<path d="M3720 4944 c0 -41 -21 -85 -61 -132 -33 -37 -42 -65 -37 -113 l3 -34
70 4 c39 1 73 5 78 8 4 2 7 58 7 125 l0 120 -30 28 -30 28 0 -34z"/>
<path d="M2315 4939 c-16 -10 -40 -19 -52 -19 -21 0 -23 -5 -23 -45 0 -62 43
-145 75 -145 23 0 24 2 27 115 2 63 3 115 3 114 0 0 -13 -9 -30 -20z m-4 -74
c-1 -15 -24 -12 -29 3 -3 9 2 13 12 10 10 -1 17 -7 17 -13z m-1 -105 c0 -5 -4
-10 -10 -10 -5 0 -10 5 -10 10 0 6 5 10 10 10 6 0 10 -4 10 -10z"/>
<path d="M3820 4886 c0 -39 3 -45 23 -48 18 -2 23 -10 25 -42 3 -38 3 -38 -27
-34 -28 4 -31 2 -31 -24 0 -25 3 -28 35 -28 l35 0 2 65 c4 136 6 127 -29 142
l-33 13 0 -44z"/>
<path d="M1892 4895 c-6 -14 -16 -25 -21 -25 -5 0 -19 -15 -30 -34 -19 -29
-21 -49 -21 -166 l0 -132 103 -109 c56 -60 106 -123 112 -139 8 -26 14 -30 47
-30 l38 0 0 175 c0 126 4 185 14 208 16 39 70 87 97 87 19 0 19 1 -2 29 -18
25 -25 28 -63 24 -30 -4 -45 -1 -55 10 -20 24 -4 37 45 37 l44 0 0 45 0 45
-70 0 c-64 0 -70 -2 -70 -21 0 -25 -14 -53 -53 -103 -29 -37 -30 -40 -19 -82
7 -24 12 -94 12 -155 0 -85 4 -117 16 -139 16 -26 14 -60 -3 -60 -4 0 -18 15
-30 33 -21 30 -23 45 -23 160 0 124 -8 153 -33 128 -16 -16 -34 -14 -41 6 -4
11 3 26 21 43 15 14 36 39 46 56 9 16 28 44 42 63 14 19 25 42 25 52 0 16 -8
19 -58 19 -53 0 -60 -2 -70 -25z m22 -361 c7 -27 0 -64 -12 -64 -15 0 -32 42
-26 65 8 33 30 32 38 -1z"/>
<path d="M4760 4797 c0 -134 3 -138 70 -82 37 31 49 35 96 35 51 0 54 1 54 25
0 23 -4 25 -44 25 -37 0 -54 7 -98 41 -29 23 -59 49 -65 57 -11 13 -13 -6 -13
-101z"/>
<path d="M1763 4858 c-34 -38 -41 -59 -48 -156 -4 -51 -12 -95 -18 -99 -5 -3
-23 -6 -39 -5 -23 1 -28 -3 -24 -14 3 -9 6 -22 6 -29 0 -10 20 -14 70 -17 l70
-3 0 133 c0 95 4 143 15 169 18 43 18 43 2 43 -8 0 -23 -10 -34 -22z"/>
<path d="M3926 4865 c-3 -9 -6 -48 -6 -86 l0 -69 70 0 70 0 0 80 0 80 -34 0
c-18 0 -47 3 -63 6 -23 4 -32 2 -37 -11z"/>
<path d="M4100 4790 c0 -79 0 -80 26 -80 19 0 25 -5 22 -17 -2 -13 -15 -19
-46 -21 -45 -3 -49 -10 -30 -45 17 -32 28 -126 18 -153 -16 -41 -30 -27 -30
31 0 34 -9 76 -22 110 l-23 55 -48 0 -48 0 3 -97 3 -98 48 -3 c42 -3 47 -6 47
-26 0 -22 -3 -23 -52 -19 -78 7 -88 23 -88 140 l0 94 -32 -3 -33 -3 -3 -162
-2 -163 150 0 c164 0 193 7 224 54 21 33 34 32 69 -3 21 -21 25 -31 16 -37 -7
-4 -15 -2 -17 4 -7 21 -35 13 -70 -20 l-33 -33 -170 -3 -169 -3 0 -45 c0 -76
9 -84 96 -84 74 0 76 1 110 36 l34 37 87 -7 c48 -4 89 -9 92 -11 2 -2 1 -11
-3 -20 -5 -13 -20 -16 -78 -15 -40 1 -81 1 -90 1 -25 -1 -31 -35 -14 -75 11
-27 25 -40 56 -52 51 -21 60 -42 60 -146 l0 -80 69 4 c77 4 90 10 71 33 -8 10
-12 42 -11 90 1 52 -5 97 -20 146 -28 91 -22 154 16 186 24 21 36 23 146 23
l121 0 31 35 c17 19 34 35 39 35 20 0 5 -45 -26 -76 l-34 -34 -120 0 c-114 0
-122 -1 -136 -22 -21 -30 -20 -81 4 -148 14 -39 19 -82 20 -147 l0 -93 55 27
55 27 0 52 c0 51 -1 53 -35 64 -59 20 -74 82 -30 125 23 24 30 25 138 25 107
0 137 -7 137 -32 0 -4 -54 -8 -119 -8 -112 0 -121 -1 -135 -22 -25 -36 0 -52
87 -56 87 -4 126 -17 138 -49 13 -35 -5 -73 -36 -73 -18 0 -25 5 -25 19 0 11
5 21 12 23 6 2 9 12 5 21 -5 13 -18 17 -52 17 l-45 0 0 -55 0 -55 115 0 115 0
0 235 0 235 -37 0 c-65 0 -83 28 -83 122 0 74 -10 88 -62 88 -35 0 -38 -2 -38
-29 0 -17 11 -42 26 -60 27 -33 25 -51 -6 -51 -27 0 -50 39 -57 99 -4 38 -10
51 -22 51 -29 0 -81 39 -104 78 l-22 37 -8 -64 c-4 -35 -14 -76 -22 -91 -14
-28 -64 -70 -83 -70 -5 0 -19 -9 -32 -20 -36 -31 -50 -11 -50 72 0 61 2 69 18
66 11 -2 18 -14 20 -33 5 -42 16 -50 51 -36 48 20 83 145 50 178 -16 16 -3 43
21 43 18 0 20 6 20 55 l0 55 -95 0 -95 0 0 -80z m-95 -189 c3 -5 0 -13 -5 -16
-6 -4 -15 -18 -21 -32 -10 -27 -32 -27 -37 1 -7 33 47 72 63 47z m685 -437 c0
-9 -7 -14 -17 -12 -25 5 -28 28 -4 28 12 0 21 -6 21 -16z"/>
<path d="M519 4828 c-3 -27 4 -44 27 -75 29 -38 84 -48 84 -15 0 22 -8 32 -50
63 -53 38 -60 42 -61 27z"/>
<path d="M3039 4801 c-22 -21 -39 -48 -39 -59 0 -11 -3 -28 -7 -38 -6 -15 1
-16 66 -12 89 7 103 18 109 92 l4 56 -47 0 c-42 0 -52 -5 -86 -39z"/>
<path d="M3203 4778 c-1 -56 -5 -66 -31 -89 -16 -15 -36 -29 -43 -31 -11 -4
-11 -9 4 -25 14 -16 17 -39 17 -119 0 -65 -4 -104 -12 -112 -8 -8 -47 -12
-110 -12 l-98 0 0 -35 c0 -19 4 -35 9 -35 5 0 23 -12 40 -26 27 -22 29 -29 20
-47 -12 -21 -12 -21 -33 5 -11 14 -26 34 -33 44 -10 16 -12 6 -12 -58 l-1 -78
73 0 72 0 19 51 c29 82 77 127 163 149 115 31 175 57 225 97 l47 38 1 107 c0
102 -1 107 -22 114 -12 4 -41 26 -64 49 -57 56 -99 75 -171 75 l-58 0 -2 -62z
m112 31 c4 -11 4 -36 1 -55 -4 -18 -2 -52 4 -73 10 -38 13 -40 58 -46 92 -12
132 -26 132 -47 0 -15 -5 -18 -17 -14 -9 4 -38 9 -63 12 -145 16 -150 21 -150
149 0 76 3 95 14 95 8 0 18 -9 21 -21z m79 -302 c8 -21 6 -31 -7 -44 -23 -23
-47 -1 -47 44 0 30 3 34 22 31 14 -2 26 -14 32 -31z"/>
<path d="M765 4796 c-14 -14 -25 -37 -25 -51 0 -23 3 -25 51 -25 l50 0 -3 48
c-3 40 -6 47 -25 50 -14 2 -32 -6 -48 -22z"/>
<path d="M5020 4770 c0 -23 5 -30 19 -30 19 0 35 -23 24 -34 -4 -3 -14 -6 -23
-6 -13 0 -19 -11 -23 -42 -4 -29 -16 -51 -39 -75 -43 -42 -210 -125 -220 -109
-4 6 -8 -5 -8 -24 l0 -35 105 3 c105 3 105 3 105 28 0 56 50 94 125 94 l35 0
0 130 0 130 -50 0 c-49 0 -50 -1 -50 -30z"/>
<path d="M870 4751 c0 -5 7 -15 17 -22 15 -13 15 -12 4 9 -12 23 -21 28 -21
13z"/>
<path d="M4852 4679 c-18 -16 -46 -32 -61 -35 -24 -5 -30 -13 -35 -43 -8 -50
-7 -118 2 -104 4 6 46 30 94 53 92 44 128 78 128 123 0 48 -78 52 -128 6z"/>
<path d="M160 4665 c0 -25 -23 -35 -35 -15 -14 23 -25 7 -25 -35 0 -54 -17
-98 -54 -142 -20 -24 -29 -48 -33 -88 l-6 -56 77 -75 c42 -42 76 -80 76 -85 0
-27 -50 1 -122 70 l-38 35 0 -32 c0 -23 7 -36 26 -48 30 -20 54 -63 54 -99 0
-24 2 -25 65 -25 l65 0 0 50 c0 44 -5 55 -46 106 -25 31 -52 71 -60 90 -18 42
-18 115 0 157 18 45 71 87 107 87 l29 0 0 65 0 65 -40 0 c-36 0 -40 -2 -40
-25z"/>
<path d="M2198 4661 l-33 -29 -3 -111 c-4 -129 0 -133 65 -69 l43 42 0 98 c0
91 -1 98 -20 98 -11 0 -34 -13 -52 -29z"/>
<path d="M540 4525 c0 -97 4 -155 10 -155 6 0 10 -9 10 -20 0 -11 -4 -20 -10
-20 -6 0 -10 -32 -10 -75 0 -41 4 -75 10 -75 5 0 20 5 34 11 25 12 25 15 28
123 3 96 5 111 21 114 15 3 17 -7 17 -113 0 -110 -1 -117 -25 -141 -13 -13
-38 -27 -54 -30 -21 -4 -37 -18 -51 -42 l-21 -35 53 6 c29 4 84 7 121 7 l69 0
-4 294 -3 294 -65 6 c-36 3 -80 6 -97 6 l-33 0 0 -155z m112 33 c-9 -9 -15 -9
-24 0 -10 10 -10 15 2 22 20 12 38 -6 22 -22z"/>
<path d="M2310 4586 c0 -81 -3 -98 -23 -128 -22 -31 -22 -34 -6 -35 10 -1 28
11 39 27 17 24 20 44 20 129 0 83 -3 101 -15 101 -12 0 -15 -17 -15 -94z"/>
<path d="M2380 4583 c-1 -101 -14 -159 -46 -194 -20 -23 -42 -24 -63 -5 -14
13 -22 12 -64 -7 l-47 -22 0 -110 c0 -127 9 -148 68 -165 20 -5 63 -10 96 -10
l58 0 -33 39 c-19 21 -50 46 -69 54 -19 8 -53 34 -75 57 -32 33 -37 43 -25 50
18 11 45 -3 66 -35 10 -15 26 -25 39 -25 15 0 36 -15 59 -42 l36 -42 0 87 c0
77 2 87 22 101 35 25 94 20 123 -9 14 -13 25 -29 25 -35 0 -5 20 -10 43 -10
45 0 97 -29 141 -79 16 -17 30 -21 83 -21 l63 0 0 125 0 125 -36 40 -36 40
-30 -18 -29 -17 33 -30 c18 -17 47 -40 63 -52 l30 -22 -75 -1 c-69 0 -76 -2
-96 -27 -28 -35 -40 -24 -28 25 8 34 13 37 49 42 l39 5 -33 28 c-31 26 -37 27
-142 27 -98 0 -109 -2 -109 -18 0 -25 19 -42 47 -42 16 0 23 -6 23 -20 0 -30
-54 -27 -85 5 -24 23 -25 29 -25 165 l0 140 -30 0 -30 0 0 -97z m352 -310 c38
-34 15 -64 -26 -32 -21 17 -24 24 -15 35 15 18 18 18 41 -3z"/>
<path d="M2478 4586 l3 -95 131 -3 c100 -2 132 0 141 11 33 39 77 29 136 -33
l35 -36 93 0 93 0 0 88 c0 55 -4 92 -12 100 -14 14 -128 16 -128 3 0 -5 -7
-17 -16 -25 -13 -13 -42 -16 -163 -16 l-148 0 -46 50 c-40 43 -51 50 -84 50
l-38 0 3 -94z"/>
<path d="M770 4375 l0 -295 30 0 30 0 0 165 c0 162 0 164 -25 189 -14 14 -25
30 -25 36 0 6 10 8 25 4 l25 -6 0 95 c0 83 2 96 18 100 9 3 -4 5 -30 6 l-48 1
0 -295z"/>
<path d="M938 4662 l-68 -3 0 -89 c0 -70 3 -90 14 -90 19 0 35 22 42 58 7 34
28 43 38 16 13 -33 5 -57 -29 -91 l-36 -36 43 -36 c24 -19 71 -62 106 -95 34
-32 62 -54 62 -48 0 17 37 15 43 -2 3 -7 1 -18 -5 -24 -16 -16 12 -53 67 -93
32 -23 42 -35 33 -41 -8 -5 -1 -8 20 -8 l32 0 0 218 c0 156 -3 221 -12 230 -7
7 -29 12 -50 12 -36 0 -38 -2 -38 -30 0 -20 -5 -30 -15 -30 -11 0 -15 12 -15
50 l0 50 60 0 c101 0 100 3 100 -270 l0 -230 33 0 32 0 -2 233 c-1 127 -2 242
-2 254 -1 12 -12 34 -25 50 -20 23 -35 29 -92 36 -38 4 -91 9 -119 10 l-50 2
4 -114 4 -114 44 -55 c44 -54 44 -54 41 -125 -2 -56 -6 -72 -18 -72 -12 0 -14
12 -12 61 4 61 4 61 -47 119 l-51 58 0 117 0 118 -32 3 c-18 2 -63 3 -100 1z
m320 -235 c2 -12 -3 -17 -17 -17 -12 0 -21 6 -21 13 0 31 32 34 38 4z m-210
-29 c12 -12 17 -48 7 -48 -4 0 -23 9 -54 27 -5 3 20 33 28 33 4 0 12 -5 19
-12z"/>
<path d="M2660 4630 c8 -5 74 -10 145 -10 72 0 137 5 145 10 10 6 -38 10 -145
10 -107 0 -155 -4 -145 -10z"/>
<path d="M4695 4630 c-3 -5 -1 -10 4 -10 6 0 11 5 11 10 0 6 -2 10 -4 10 -3 0
-8 -4 -11 -10z"/>
<path d="M4630 4508 l5 -83 38 -3 37 -3 0 65 c0 73 -20 106 -62 106 -22 0 -23
-2 -18 -82z"/>
<path d="M1708 4493 c-62 -4 -68 -6 -68 -26 -1 -12 -6 -32 -13 -44 -7 -12 -10
-44 -9 -72 l4 -51 69 0 69 0 0 50 c0 41 5 55 32 86 31 35 31 37 13 50 -10 8
-21 13 -24 12 -3 -1 -36 -3 -73 -5z"/>
<path d="M5055 4493 c-16 -3 -36 -9 -42 -15 -30 -24 -1 -152 41 -187 19 -16
45 -62 57 -101 4 -14 8 49 8 143 1 184 7 170 -64 160z"/>
<path d="M3562 4293 c2 -150 6 -182 21 -203 9 -13 17 -31 17 -40 0 -28 58 -86
118 -118 33 -18 65 -32 71 -32 6 0 11 15 11 32 0 27 -10 42 -55 84 -40 36 -54
56 -49 67 9 26 19 21 73 -33 58 -58 71 -79 71 -114 0 -22 5 -26 28 -26 58 0
103 -20 124 -56 19 -32 23 -34 74 -34 l54 0 0 89 0 89 -47 23 c-34 17 -53 35
-66 62 l-19 37 -84 0 c-107 0 -123 13 -125 98 -1 31 -1 60 0 65 0 4 -22 7 -50
7 l-52 0 5 -70 c5 -72 1 -81 -26 -54 -13 12 -16 40 -16 140 l0 124 -32 20
c-18 11 -37 20 -41 20 -5 0 -7 -80 -5 -177z"/>
<path d="M3487 4425 c-20 -25 -52 -43 -120 -69 -51 -20 -98 -36 -104 -36 -7 0
-31 -7 -53 -16 -31 -13 -48 -29 -70 -68 -17 -28 -30 -57 -30 -63 0 -10 48 -13
205 -13 l205 0 0 55 0 55 -40 0 c-29 0 -42 -5 -50 -20 -13 -25 -40 -26 -40 -2
0 36 25 54 78 60 l52 5 0 73 c0 41 -1 74 -2 73 -2 0 -16 -16 -31 -34z"/>
<path d="M1827 4422 c-24 -25 -27 -36 -27 -95 0 -45 4 -69 13 -72 6 -2 49 -5
95 -7 80 -3 82 -3 82 20 0 19 -50 86 -129 175 -4 4 -19 -6 -34 -21z m71 -99
c12 -23 5 -40 -18 -53 -26 -14 -50 -2 -50 24 0 43 50 64 68 29z"/>
<path d="M870 4236 l0 -156 120 0 120 0 0 49 0 49 -99 92 c-55 51 -109 99
-120 107 l-21 14 0 -155z m118 -38 c-2 -54 -7 -83 -15 -86 -10 -3 -13 18 -13
82 0 71 3 86 15 86 13 0 15 -14 13 -82z"/>
<path d="M4750 4230 l0 -150 54 0 c46 0 56 3 61 20 3 11 31 40 61 66 47 41 54
51 54 84 0 42 -8 54 -26 39 -19 -15 -58 -7 -62 14 -4 22 35 38 66 26 25 -10
26 -9 10 26 -11 24 -14 25 -115 25 l-103 0 0 -150z"/>
<path d="M2423 4274 c-3 -8 -3 -56 -1 -106 l6 -90 48 -49 c41 -42 50 -47 62
-35 12 12 11 17 -7 35 -23 23 -24 34 -21 154 1 49 -3 83 -10 92 -17 20 -69 19
-77 -1z"/>
<path d="M1621 4218 c1 -49 -10 -108 -22 -124 -5 -6 6 -30 26 -59 19 -27 35
-55 35 -62 0 -12 28 -13 164 -7 156 7 164 6 169 -12 7 -28 8 75 1 119 l-7 37
-79 0 c-89 0 -118 -10 -118 -43 0 -42 -57 -113 -76 -95 -3 3 7 27 21 53 22 42
25 61 25 141 l0 94 -70 0 -69 0 0 -42z m301 -160 c8 -18 13 -39 11 -45 -6 -18
-73 -17 -73 1 0 7 -3 28 -6 45 -6 29 -5 31 23 31 23 0 32 -7 45 -32z"/>
<path d="M5020 4232 c0 -33 -23 -63 -88 -114 -26 -21 -29 -56 -4 -74 16 -13
16 -15 0 -28 -13 -9 -18 -27 -18 -60 0 -61 18 -61 104 4 62 48 66 53 67 93 4
95 -8 146 -45 192 -15 19 -15 19 -16 -13z"/>
<path d="M2078 4222 l-38 -3 0 -119 0 -118 30 14 c16 9 43 28 58 44 27 26 28
30 13 45 -10 9 -18 40 -21 78 l-5 62 -37 -3z"/>
<path d="M1807 4203 c-4 -3 -7 -17 -7 -30 0 -22 2 -23 95 -23 l95 0 0 30 0 30
-88 0 c-49 0 -92 -3 -95 -7z"/>
<path d="M2546 4194 c-11 -28 -6 -118 7 -136 12 -15 19 -13 77 28 35 24 70 42
78 39 18 -7 -23 51 -51 70 -29 20 -103 20 -111 -1z"/>
<path d="M1430 4140 c0 -53 2 -60 20 -60 18 0 20 7 20 60 0 53 -2 60 -20 60
-18 0 -20 -7 -20 -60z"/>
<path d="M0 4110 c0 -33 3 -40 20 -40 22 0 27 28 10 61 -17 31 -30 22 -30 -21z"/>
<path d="M1150 4107 c0 -24 4 -27 32 -27 17 0 29 1 27 3 -2 1 -16 13 -31 26
l-28 24 0 -26z"/>
<path d="M2679 4073 c-29 -22 -69 -57 -88 -77 -33 -34 -34 -37 -18 -54 23 -25
21 -42 -3 -42 -12 0 -52 29 -90 65 -58 55 -75 65 -105 65 -46 0 -44 -14 5 -46
44 -30 52 -54 17 -54 -14 0 -40 17 -66 44 -33 33 -57 48 -93 57 -46 10 -52 10
-70 -9 -19 -18 -20 -24 -8 -51 10 -26 10 -35 -3 -55 -9 -13 -14 -32 -12 -42 2
-11 6 -40 9 -66 5 -42 3 -48 -13 -48 -23 0 -31 19 -31 78 -1 44 -3 48 -36 64
-35 16 -35 16 -45 -9 -7 -19 -5 -39 7 -75 22 -67 47 -78 174 -78 94 0 100 1
100 20 0 58 74 120 143 120 44 0 56 -15 64 -79 4 -38 2 -57 -11 -76 -15 -23
-22 -25 -96 -25 l-80 0 0 -94 0 -93 52 -9 c38 -6 54 -14 56 -26 3 -15 -5 -18
-52 -18 l-56 0 0 -55 0 -55 80 0 c74 0 81 2 96 25 13 19 15 39 11 78 -9 80 6
147 37 174 31 26 66 30 66 8 0 -8 -13 -21 -29 -29 -36 -19 -42 -43 -40 -157 1
-70 -2 -94 -15 -108 -13 -14 -16 -41 -16 -138 0 -105 2 -123 20 -146 19 -24
86 -55 96 -44 6 6 6 216 -1 602 l-6 340 25 24 c26 25 56 23 56 -3 0 -9 -9 -20
-20 -26 -19 -10 -20 -21 -20 -298 0 -158 3 -297 6 -310 4 -14 25 -32 56 -48
61 -31 88 -73 88 -136 0 -41 3 -48 20 -48 11 0 20 -7 20 -15 0 -26 -39 -37
-106 -30 l-64 7 0 -32 0 -31 93 3 92 3 5 80 c3 44 4 106 1 137 -3 54 -5 57
-26 52 -17 -4 -28 2 -44 25 -17 24 -30 31 -54 31 -18 0 -43 7 -55 16 -19 13
-22 24 -21 82 l1 67 29 -62 c23 -50 34 -63 52 -63 12 0 31 -6 42 -13 11 -8 32
-22 48 -32 l27 -17 0 131 0 131 -26 0 c-15 0 -33 -8 -40 -17 -13 -17 -15 -17
-25 0 -6 11 -22 17 -44 17 -47 0 -65 9 -65 32 0 19 5 20 48 15 48 -5 48 -5
-25 24 -22 8 -23 14 -23 112 0 118 5 128 99 213 49 44 53 46 69 30 16 -16 15
-19 -13 -39 -16 -12 -49 -39 -72 -61 l-43 -39 0 -93 0 -93 34 -6 c19 -4 43
-18 55 -31 12 -13 32 -24 46 -24 l25 0 0 248 0 247 -73 0 c-70 0 -75 -2 -128
-42z m154 -290 c3 -27 6 -57 8 -68 3 -15 -1 -20 -16 -20 -16 0 -20 6 -19 33 1
17 -2 32 -7 32 -10 0 -12 53 -2 63 18 19 31 3 36 -40z"/>
<path d="M2926 4080 c-3 -19 -6 -77 -6 -129 0 -74 3 -91 13 -83 6 5 35 13 62
17 28 4 53 13 57 19 4 6 8 57 8 114 l0 102 -64 -2 -64 -3 -6 -35z"/>
<path d="M3100 4023 c0 -54 -3 -108 -6 -120 -5 -17 -2 -23 10 -23 13 0 16 12
16 70 0 62 3 74 25 95 21 22 33 25 99 25 64 0 75 -3 81 -19 11 -36 -18 -71
-31 -36 -8 19 -104 21 -122 3 -7 -7 -12 -39 -12 -75 l0 -63 35 0 c32 0 35 2
35 30 0 23 -4 30 -20 30 -13 0 -20 7 -20 20 0 18 7 20 79 20 76 0 80 -1 105
-31 29 -34 26 -55 -4 -39 -10 6 -22 15 -25 20 -3 6 -24 10 -47 10 l-40 0 4
-106 3 -107 64 -58 c86 -79 158 -121 186 -107 59 30 65 45 65 153 0 131 -7
139 -107 130 l-68 -7 3 -60 c4 -54 8 -64 43 -99 39 -39 48 -62 28 -74 -14 -9
-46 20 -81 74 -22 36 -28 56 -28 103 l0 58 -44 0 c-39 0 -56 11 -56 35 0 8 57
14 169 16 l123 3 29 -32 c28 -32 29 -35 29 -147 0 -114 0 -114 -31 -150 -28
-31 -30 -39 -21 -60 9 -18 21 -25 59 -30 26 -3 60 -8 74 -10 23 -3 26 -1 22
15 -4 15 0 20 14 20 14 0 28 -16 46 -53 25 -48 27 -63 27 -167 0 -104 2 -116
20 -128 19 -12 20 -10 20 54 0 51 5 72 20 91 15 20 20 41 20 90 0 47 3 64 13
61 8 -3 13 -30 15 -78 2 -58 -1 -77 -15 -94 -10 -11 -11 -15 -3 -8 8 6 35 12
61 12 38 0 47 3 45 17 0 10 7 19 17 21 12 2 17 -3 17 -17 0 -18 6 -21 39 -21
74 0 71 -7 71 180 0 144 -2 169 -16 174 -9 3 -61 6 -116 6 -120 0 -148 11
-201 81 -42 55 -71 63 -102 28 -19 -19 -19 -21 0 -55 11 -20 41 -55 67 -79 44
-40 53 -44 120 -50 40 -4 81 -12 91 -17 29 -15 47 -71 47 -148 0 -63 -2 -70
-20 -70 -18 0 -20 7 -20 74 0 102 -12 115 -110 123 l-75 6 -64 61 c-75 72 -95
106 -86 147 10 45 51 72 103 66 35 -4 42 -2 38 10 -3 8 -6 20 -6 27 0 7 -24
20 -52 29 -73 23 -167 98 -175 140 -7 31 -7 30 -14 -17 -5 -32 -16 -58 -32
-74 -35 -35 -53 -20 -27 22 15 25 20 50 20 105 l0 71 -210 0 -210 0 0 -97z
m370 28 c15 -28 12 -51 -6 -58 -20 -7 -34 13 -34 50 0 32 24 37 40 8z m-30
-105 c0 -20 -19 -31 -32 -18 -6 6 -7 15 -4 21 10 16 36 13 36 -3z m310 -406
c0 -11 -7 -20 -15 -20 -8 0 -15 9 -15 20 0 11 7 20 15 20 8 0 15 -9 15 -20z"/>
<path d="M1538 4059 c-13 -7 -18 -23 -18 -54 l0 -45 66 0 66 0 -30 25 c-16 13
-35 38 -42 55 -14 33 -17 34 -42 19z"/>
<path d="M5111 4044 c0 -11 3 -14 6 -6 3 7 2 16 -1 19 -3 4 -6 -2 -5 -13z"/>
<path d="M4808 4043 l-58 -4 0 -64 0 -65 60 0 60 0 0 70 c0 39 -1 69 -2 68 -2
-1 -29 -3 -60 -5z"/>
<path d="M1020 4027 c13 -7 39 -32 57 -55 29 -39 33 -51 33 -106 0 -56 3 -65
30 -91 28 -26 39 -30 105 -33 65 -4 75 -2 75 13 0 29 -18 52 -70 90 -44 32
-55 36 -89 30 l-38 -6 -7 47 c-3 26 -6 64 -6 85 l0 39 -57 0 c-53 0 -56 -1
-33 -13z"/>
<path d="M1145 3975 c0 -50 3 -64 13 -60 8 3 20 5 27 5 7 0 18 14 24 32 6 18
23 45 38 60 l27 28 -65 0 -64 0 0 -65z"/>
<path d="M1310 4031 c0 -5 14 -21 31 -35 24 -20 41 -26 80 -26 47 0 50 -2 47
-22 -6 -45 -101 -33 -149 18 -28 30 -43 30 -63 2 -27 -38 -19 -61 32 -100 40
-32 48 -35 53 -20 4 9 3 21 -2 27 -14 15 -10 45 6 45 8 0 16 -6 16 -12 1 -7 2
-17 4 -23 1 -5 3 -16 3 -22 1 -9 20 -13 57 -13 l55 0 0 95 0 95 -85 0 c-47 0
-85 -4 -85 -9z m138 -28 c2 -8 -6 -13 -22 -13 -17 0 -26 5 -26 16 0 19 41 16
48 -3z"/>
<path d="M451 4011 c18 -28 4 -54 -25 -49 -18 4 -26 0 -29 -14 -4 -14 1 -18
23 -18 16 0 41 -11 57 -24 27 -23 28 -29 31 -125 l4 -101 39 0 39 0 0 105 c0
119 -12 161 -62 213 -21 21 -41 32 -60 32 -25 0 -27 -2 -17 -19z"/>
<path d="M579 3995 c17 -20 33 -48 37 -63 11 -53 15 -59 24 -37 4 11 29 44 54
73 25 30 46 56 46 58 0 2 -43 4 -96 4 l-96 0 31 -35z"/>
<path d="M770 3949 c0 -76 1 -81 18 -68 34 26 42 44 42 96 0 52 0 53 -30 53
l-30 0 0 -81z"/>
<path d="M0 3978 c0 -48 16 -42 26 10 5 25 3 32 -10 32 -12 0 -16 -10 -16 -42z"/>
<path d="M130 3855 l0 -165 51 0 50 0 -4 93 c-2 50 -7 103 -10 117 -3 14 -9
46 -12 73 -6 46 -7 47 -41 47 l-34 0 0 -165z"/>
<path d="M246 3993 c-8 -34 6 -85 31 -116 l18 -23 35 37 c26 27 34 44 32 64
-2 15 4 35 14 46 17 19 15 19 -54 19 -69 0 -71 -1 -76 -27z"/>
<path d="M66 3969 c-3 -17 -19 -44 -36 -60 -26 -26 -30 -38 -30 -82 0 -40 3
-48 12 -39 18 18 46 14 58 -7 7 -15 6 -23 -6 -35 -21 -21 -30 -20 -48 6 -15
21 -16 16 -16 -77 l0 -99 52 52 53 51 -3 161 c-2 125 -6 160 -16 160 -8 0 -16
-14 -20 -31z"/>
<path d="M908 3983 l-38 -4 0 -148 0 -148 30 -6 c16 -4 49 -24 72 -45 44 -40
78 -62 97 -62 7 0 11 53 11 158 0 132 -3 164 -19 199 -28 61 -45 67 -153 56z
m82 -70 c0 -32 3 -81 6 -108 6 -45 3 -54 -21 -83 -21 -26 -30 -30 -41 -21 -12
9 -10 16 10 39 22 26 23 34 18 129 -4 89 -3 101 12 101 13 0 16 -11 16 -57z"/>
<path d="M5063 3950 l-42 -40 49 0 50 0 0 40 c0 22 -3 40 -7 40 -5 0 -27 -18
-50 -40z"/>
<path d="M683 3912 l-51 -53 -6 -90 -5 -89 64 0 65 0 0 139 c0 77 -3 141 -7
143 -5 2 -31 -21 -60 -50z m57 -137 c0 -50 -4 -85 -10 -85 -6 0 -10 35 -10 85
0 50 4 85 10 85 6 0 10 -35 10 -85z"/>
<path d="M1785 3920 c-4 -6 -24 -10 -46 -10 -27 0 -39 -4 -39 -14 0 -8 -3 -21
-6 -30 -5 -14 7 -16 102 -16 136 0 193 18 194 60 0 13 -18 16 -100 17 -55 1
-102 -2 -105 -7z"/>
<path d="M1520 3885 l0 -35 70 0 70 0 0 35 0 35 -70 0 -70 0 0 -35z"/>
<path d="M365 3865 c-14 -13 -25 -32 -25 -42 0 -68 54 -143 102 -143 l28 0 0
85 c0 72 -3 88 -20 105 -27 27 -56 25 -85 -5z"/>
<path d="M3850 3810 c0 -63 16 -101 48 -116 9 -5 68 -11 130 -14 97 -4 111 -3
106 10 -4 8 -9 32 -12 53 l-4 37 -60 0 c-70 0 -93 10 -102 45 -7 27 -40 45
-82 45 -23 0 -24 -3 -24 -60z"/>
<path d="M803 3848 c-21 -10 -23 -18 -23 -90 0 -77 0 -78 25 -78 25 0 25 1 25
90 0 50 -1 90 -2 89 -2 0 -13 -5 -25 -11z"/>
<path d="M4440 3832 c0 -29 16 -52 36 -52 7 0 26 11 43 25 26 23 38 26 93 23
61 -3 63 -4 66 -32 5 -42 -13 -54 -33 -22 -23 35 -62 34 -110 -4 -43 -34 -73
-38 -106 -12 -15 13 -23 30 -23 55 -1 21 -3 36 -6 34 -80 -45 -141 -67 -192
-67 l-56 0 10 -34 c10 -32 13 -34 36 -25 66 25 153 -22 172 -92 l11 -40 97 3
c92 3 97 4 94 24 -3 26 14 74 28 74 14 0 13 -127 -2 -136 -6 -4 -61 -8 -122
-8 -61 -1 -118 -3 -126 -6 -12 -4 -16 6 -18 45 -4 57 -28 90 -73 100 -15 4
-37 2 -48 -4 -18 -10 -14 -17 54 -86 l73 -75 118 0 c95 0 121 3 136 16 16 15
18 15 24 1 14 -37 1 -52 -51 -55 -103 -5 -95 9 -95 -167 l0 -155 35 0 c32 0
35 2 35 31 0 17 12 51 27 76 l27 46 -22 15 c-12 8 -22 21 -22 28 0 17 42 18
58 2 21 -21 14 -82 -13 -122 -24 -36 -34 -86 -16 -86 4 0 6 11 4 24 -4 17 1
27 16 35 17 10 26 7 53 -19 29 -26 30 -29 13 -30 -12 0 -26 5 -32 11 -7 7 -12
6 -16 -5 -5 -13 2 -16 44 -16 l50 0 -3 123 c-2 88 -6 122 -15 123 -7 1 -17 2
-23 3 -22 2 -10 41 15 47 l25 6 0 204 0 204 -135 0 -135 0 0 -28z"/>
<path d="M4751 3818 c0 -29 3 -37 8 -24 4 10 25 29 46 42 l40 24 -47 0 -48 0
1 -42z"/>
<path d="M4955 3838 c9 -29 38 -67 108 -143 l56 -60 1 113 0 112 -86 0 c-84 0
-85 0 -79 -22z"/>
<path d="M4853 3820 c-38 -22 -57 -41 -68 -66 -8 -19 -19 -33 -24 -29 -7 4
-11 -96 -13 -284 -3 -261 -1 -290 14 -300 19 -12 32 -62 23 -91 -10 -32 -23
-23 -28 18 l-4 37 -1 -41 c-1 -29 3 -44 13 -48 8 -3 15 -17 15 -31 0 -14 -7
-28 -15 -31 -13 -5 -15 -52 -15 -340 l0 -334 93 1 c50 1 82 4 70 6 -12 2 -38
22 -57 44 -36 39 -36 39 -36 133 l0 95 -27 3 c-41 4 -36 32 5 36 46 5 62 -12
62 -64 0 -37 3 -44 20 -44 18 0 20 7 20 63 0 73 -15 100 -65 117 -47 15 -75
53 -75 101 0 46 31 86 94 120 l46 24 0 114 c0 123 -7 141 -77 209 -17 17 -23
33 -21 55 3 30 6 32 46 35 l42 3 0 43 c0 45 13 66 42 66 26 0 35 -30 14 -45
-14 -11 -16 -28 -14 -106 3 -89 4 -94 26 -97 27 -4 29 -28 2 -44 -16 -10 -20
-24 -20 -65 l0 -53 65 0 c57 0 69 3 90 25 28 27 33 76 10 95 -8 7 -15 23 -15
35 0 12 7 28 15 35 23 19 18 33 -25 75 -77 75 -78 155 -4 232 24 26 44 49 44
52 0 3 -15 18 -34 33 -44 35 -152 168 -168 208 l-13 30 -52 -30z m187 -256 c0
-62 -21 -84 -82 -84 -61 0 -78 25 -78 116 0 66 2 75 18 72 14 -3 18 -17 22
-73 l5 -70 35 0 c33 0 35 2 38 36 3 31 -4 44 -37 83 -23 26 -41 53 -41 60 0
32 19 24 68 -30 49 -54 52 -60 52 -110z m-212 -60 c-5 -29 -35 -41 -54 -22
-22 21 -10 38 27 38 23 0 30 -4 27 -16z"/>
<path d="M2394 3821 c-17 -11 -36 -33 -42 -50 l-11 -31 65 0 64 0 0 50 c0 45
-2 50 -22 50 -13 0 -37 -9 -54 -19z"/>
<path d="M2947 3822 c-13 -14 -17 -39 -17 -106 l0 -87 63 3 62 3 3 37 c2 27
12 44 33 62 23 20 29 33 29 65 l0 41 -78 0 c-64 0 -82 -4 -95 -18z"/>
<path d="M3160 3791 c0 -43 -4 -53 -31 -76 l-32 -26 2 -101 c1 -55 4 -105 7
-109 9 -15 44 -10 50 6 4 8 41 42 84 74 l78 59 -35 33 c-44 42 -63 85 -63 144
0 43 -1 45 -30 45 -29 0 -30 -1 -30 -49z"/>
<path d="M260 3761 l0 -69 40 -4 39 -3 -19 20 c-13 14 -20 35 -20 61 0 37 -13
64 -32 64 -4 0 -8 -31 -8 -69z"/>
<path d="M1955 3819 c-16 -4 -81 -7 -142 -8 l-113 -1 0 -39 0 -39 103 -4 c131
-5 143 -3 168 38 27 45 22 61 -16 53z"/>
<path d="M1350 3806 c6 -6 10 -63 10 -128 l0 -118 60 0 60 0 0 124 0 124 -70
4 c-43 2 -66 0 -60 -6z"/>
<path d="M1520 3685 l0 -125 30 0 c20 0 40 9 57 26 24 24 25 27 9 36 -9 5 -25
7 -35 3 -26 -8 -51 4 -51 26 0 15 9 18 63 21 l62 3 3 68 3 67 -71 0 -70 0 0
-125z"/>
<path d="M1110 3661 l0 -101 49 0 c26 0 76 -3 110 -6 l61 -7 -1 94 c-1 52 -3
86 -6 75 -4 -17 -13 -18 -86 -14 -72 4 -83 8 -104 32 l-23 27 0 -100z m153
-25 c8 -21 -40 -63 -55 -48 -9 9 -6 18 12 37 27 29 36 31 43 11z"/>
<path d="M1978 3717 l-26 -32 -122 0 c-109 0 -123 -2 -136 -19 -23 -32 -17
-39 29 -31 80 13 92 12 95 -11 4 -25 -8 -29 -85 -33 -39 -2 -53 1 -53 11 0 7
-8 -1 -19 -17 -23 -38 -57 -62 -105 -70 l-36 -7 0 -75 c0 -113 25 -151 112
-164 58 -9 88 -28 182 -116 l66 -61 0 -74 c0 -66 3 -77 24 -97 13 -13 27 -38
30 -57 4 -19 10 -34 14 -34 4 0 32 16 62 35 29 19 57 36 60 37 4 2 10 20 14
41 7 36 6 37 -23 37 -16 0 -33 5 -36 10 -12 19 16 40 51 40 27 0 37 -6 45 -24
7 -14 22 -27 35 -30 33 -9 30 -34 -3 -38 -22 -2 -28 -8 -28 -28 0 -21 5 -26
33 -28 25 -3 32 -8 30 -20 -4 -21 -50 -28 -88 -12 -25 10 -34 7 -90 -29 -35
-23 -73 -41 -86 -41 -12 0 -29 -3 -37 -6 -17 -6 -50 23 -42 37 4 5 14 9 25 9
36 0 35 51 -2 71 -40 21 -48 -3 -48 -137 l0 -124 50 0 c69 0 113 43 78 78 -22
22 -37 13 -40 -23 -4 -50 -22 -44 -26 9 -2 36 1 47 17 55 36 20 101 -23 101
-67 0 -31 -60 -92 -91 -92 -21 0 -20 -3 16 -40 35 -36 40 -38 49 -23 5 10 36
48 68 84 57 65 58 66 58 127 0 47 3 62 14 62 20 0 27 -106 9 -143 -8 -15 -43
-59 -80 -97 l-65 -70 55 0 c46 0 63 -5 105 -35 41 -28 51 -31 56 -19 16 42 0
769 -16 740 -8 -13 -31 -16 -144 -16 l-135 0 -48 45 c-26 25 -50 42 -54 39 -3
-3 -15 -3 -27 1 -19 6 -21 12 -17 41 4 23 2 34 -6 34 -77 3 -174 14 -181 21
-6 5 1 9 17 9 22 0 27 5 27 25 0 34 38 55 56 30 7 -10 15 -21 16 -26 2 -4 22
-9 45 -10 36 -3 45 1 64 25 l22 28 110 -4 c91 -3 111 -6 122 -22 27 -36 -16
-66 -45 -31 -9 11 -34 15 -96 15 -72 0 -85 -3 -94 -19 -18 -35 -11 -51 47
-107 l57 -54 103 0 c74 0 112 5 136 16 34 16 34 17 41 105 8 104 2 139 -25
139 -12 0 -19 7 -19 20 0 15 7 20 25 20 25 0 25 0 25 95 l0 95 -45 0 c-51 0
-103 18 -124 43 -18 22 -21 21 -53 -16z m12 -672 c0 -4 -7 -19 -15 -36 -12
-22 -13 -34 -4 -50 6 -11 8 -24 4 -27 -10 -11 -40 14 -43 36 -4 27 25 82 43
82 8 0 15 -2 15 -5z"/>
<path d="M2230 3600 l0 -90 30 0 30 0 0 90 0 90 -30 0 -30 0 0 -90z"/>
<path d="M62 3577 c-62 -62 -62 -63 -62 -120 0 -49 3 -57 19 -57 15 0 19 10
25 56 4 32 16 69 27 86 19 25 25 28 57 22 21 -4 45 -11 55 -16 27 -14 47 8 47
53 l0 39 -53 0 c-51 0 -54 -2 -115 -63z"/>
<path d="M270 3616 c0 -13 -3 -33 -7 -43 -5 -12 5 -8 30 14 52 46 146 57 169
20 5 -7 8 -3 8 11 0 21 -3 22 -100 22 -99 0 -100 0 -100 -24z"/>
<path d="M510 3622 c0 -11 9 -27 21 -38 48 -43 60 -94 34 -144 -15 -28 -14
-30 5 -30 19 0 20 6 20 115 l0 115 -40 0 c-32 0 -40 -4 -40 -18z"/>
<path d="M630 3525 l0 -115 55 0 55 0 0 115 0 115 -55 0 -55 0 0 -115z"/>
<path d="M780 3525 l0 -115 31 0 c17 0 39 -5 50 -10 16 -9 19 -7 19 8 0 11 -9
31 -21 46 -18 22 -20 37 -17 106 l3 80 -32 0 -33 0 0 -115z"/>
<path d="M870 3563 c0 -59 4 -71 25 -92 17 -16 25 -34 25 -57 l0 -34 64 0 c55
0 64 3 62 18 -1 11 6 17 19 17 13 0 20 -6 19 -17 -1 -14 6 -18 30 -18 l31 0 0
64 0 64 -57 12 c-45 8 -72 22 -120 60 -86 70 -98 68 -98 -17z"/>
<path d="M4190 3452 l0 -162 25 16 c29 19 85 127 85 163 -1 17 -19 47 -55 86
l-55 60 0 -163z"/>
<path d="M3295 3558 c-28 -25 -44 -46 -41 -55 3 -8 1 -24 -5 -35 -8 -15 -18
-19 -40 -16 -17 3 -34 -1 -40 -9 -17 -19 -53 -16 -83 8 -22 17 -26 28 -26 74
l0 53 -65 4 -65 3 0 -127 0 -128 80 0 c63 0 82 -3 87 -15 3 -9 3 -18 0 -21 -3
-3 -44 -5 -91 -5 l-85 1 2 -145 c1 -141 2 -145 23 -145 11 0 52 -16 90 -36
148 -78 170 -108 165 -231 l-3 -83 95 0 95 0 4 45 3 44 -90 3 c-72 2 -90 6
-90 18 0 12 18 16 93 18 l92 3 0 47 c0 79 -56 121 -174 133 -59 5 -73 11 -93
33 -20 24 -23 38 -23 111 0 82 -1 84 -35 118 -51 51 -44 77 10 41 l25 -16 0
40 c0 57 28 82 91 82 29 0 51 6 59 15 7 8 54 40 106 72 85 52 110 73 85 73 -5
0 -32 15 -60 34 l-50 34 -46 -40z m-267 -416 c2 -14 -2 -22 -12 -22 -19 0 -28
14 -20 35 9 21 28 14 32 -13z m55 -71 c4 -1 7 -10 7 -21 0 -18 -7 -20 -80 -20
-72 0 -80 2 -80 19 0 11 5 21 11 23 10 3 117 2 142 -1z m295 -358 c-6 -32
-158 -29 -158 2 0 12 17 15 81 15 71 0 80 -2 77 -17z"/>
<path d="M360 3583 c-8 -3 -32 -21 -53 -39 -20 -19 -46 -34 -57 -34 -18 0 -20
-7 -19 -82 l0 -83 52 -42 c51 -43 51 -43 134 -43 l83 0 0 56 0 55 -115 -3
c-103 -3 -115 -1 -115 14 0 28 18 32 130 29 l106 -2 19 41 c17 38 17 45 4 68
-7 14 -25 33 -39 43 -26 19 -105 32 -130 22z m107 -59 c9 -23 -11 -38 -26 -20
-13 16 -7 36 10 36 5 0 12 -7 16 -16z"/>
<path d="M96 3498 c-23 -33 -21 -84 4 -91 12 -3 20 -14 20 -26 0 -17 -7 -20
-52 -23 l-53 -3 27 -27 c24 -25 35 -28 88 -28 l61 0 -3 108 -3 107 -37 3 c-28
2 -40 -2 -52 -20z"/>
<path d="M1190 3461 c0 -27 -3 -56 -6 -65 -5 -14 4 -16 65 -16 l71 0 0 65 0
65 -65 0 -65 0 0 -49z"/>
<path d="M1366 3488 c-10 -38 -7 -93 6 -106 13 -13 66 -16 92 -6 12 5 16 21
16 70 l0 64 -54 0 c-47 0 -54 -3 -60 -22z"/>
<path d="M5083 3483 c-24 -36 -23 -101 2 -135 11 -15 23 -28 28 -28 4 0 7 43
7 95 0 55 -4 95 -10 95 -5 0 -18 -12 -27 -27z"/>
<path d="M3376 3415 c-105 -70 -136 -85 -167 -85 -42 0 -59 -19 -59 -64 0 -49
4 -51 100 -48 l90 3 0 65 c0 57 2 65 18 62 14 -3 17 -15 17 -83 l0 -80 -107
-3 -107 -3 -7 -44 c-15 -102 10 -135 99 -135 52 0 113 -28 151 -69 24 -25 30
-42 34 -91 l4 -60 45 0 c34 0 49 5 63 23 22 26 25 24 33 -25 l6 -38 -80 0 -79
0 0 -45 0 -45 58 0 c55 0 60 2 98 43 23 23 66 79 96 124 53 77 55 83 39 97
-13 12 -39 16 -93 16 -75 0 -77 0 -129 44 -43 36 -56 42 -62 30 -11 -19 -46
-18 -54 2 -7 20 16 36 40 28 16 -5 17 -3 6 14 -17 28 -3 71 27 82 35 14 118
12 132 -2 9 -9 12 -2 12 33 0 68 -17 79 -123 79 -80 0 -87 2 -87 20 0 19 7 20
94 20 85 0 98 -2 122 -23 25 -22 28 -31 32 -113 l4 -89 47 -48 c25 -27 58 -57
72 -67 l26 -19 -5 24 c-3 16 0 25 8 25 7 0 -5 13 -27 29 -22 16 -50 42 -63 57
-21 27 -22 35 -16 139 7 127 -2 152 -57 157 -21 2 -33 9 -35 21 -3 14 4 17 33
17 53 0 90 -31 110 -90 15 -47 16 -53 1 -75 -21 -31 -21 -123 -1 -152 8 -12
32 -32 52 -44 21 -12 39 -23 40 -24 2 -1 6 -32 9 -70 l6 -68 -36 7 c-33 6 -37
4 -70 -41 -20 -26 -36 -53 -36 -59 0 -16 24 -24 75 -24 68 0 75 16 75 186 0
117 -3 143 -15 148 -9 3 -15 0 -15 -10 0 -8 -5 -12 -11 -9 -6 4 -8 13 -5 21 3
8 1 14 -5 14 -6 0 -17 7 -26 16 -13 13 -14 34 -8 144 9 171 9 170 -101 170
-85 0 -86 0 -121 35 -19 19 -36 35 -37 35 -1 0 -59 -38 -130 -85z m118 -60
c19 -19 10 -45 -15 -45 -22 0 -34 22 -25 45 7 19 21 19 40 0z m44 -497 c-4
-39 -23 -47 -32 -13 -8 30 -1 45 20 45 11 0 14 -9 12 -32z"/>
<path d="M4340 3467 c0 -69 -116 -241 -140 -207 -8 13 -10 13 -10 -2 0 -10 6
-18 13 -18 6 0 21 -13 32 -30 24 -36 43 -44 62 -28 12 10 18 9 28 -5 8 -12 26
-17 59 -17 l46 0 0 155 c0 125 -3 155 -14 155 -7 0 -28 3 -45 6 -24 5 -31 3
-31 -9z"/>
<path d="M2230 3353 l0 -107 30 29 c28 27 30 33 30 107 l0 78 -30 0 -30 0 0
-107z"/>
<path d="M780 3220 c0 -149 0 -150 23 -150 13 0 33 14 50 34 26 33 27 40 27
140 l0 105 -37 10 c-66 19 -63 25 -63 -139z"/>
<path d="M536 3344 c-3 -9 -6 -31 -6 -50 0 -29 3 -34 24 -34 13 0 26 7 30 15
3 9 0 15 -9 15 -19 0 -19 24 0 40 22 18 18 30 -9 30 -13 0 -27 -7 -30 -16z"/>
<path d="M620 3240 c0 -100 -2 -120 -15 -120 -11 0 -15 12 -15 45 0 43 -1 45
-30 45 -29 0 -30 -2 -30 -44 l0 -44 47 -7 c31 -4 55 -16 75 -35 26 -27 28 -33
28 -112 -1 -106 -26 -167 -90 -211 -24 -17 -15 -17 210 -15 l235 3 3 48 3 47
-59 0 c-47 0 -67 5 -96 25 -36 25 -36 25 -56 5 -23 -23 -39 -25 -75 -8 -58 26
-75 132 -30 186 24 29 25 35 25 171 l0 141 -65 0 -65 0 0 -120z m110 45 c15
-18 5 -35 -21 -35 -24 0 -37 29 -18 41 19 12 25 11 39 -6z"/>
<path d="M1446 3333 c-16 -8 -42 -13 -58 -11 l-30 5 5 -46 c3 -25 13 -59 21
-76 9 -16 16 -40 16 -53 0 -22 43 -72 61 -72 5 0 9 -9 9 -20 0 -19 -2 -20 -28
-6 -38 20 -63 50 -73 88 -7 26 -8 20 -5 -29 2 -34 7 -66 11 -72 4 -7 65 -11
171 -11 157 0 164 -1 164 -20 0 -18 -7 -20 -70 -20 -56 0 -70 -3 -70 -15 0
-13 4 -14 20 -5 32 17 87 -5 111 -44 16 -26 19 -51 19 -163 l0 -133 30 0 30 0
0 130 c0 117 2 132 20 150 11 11 25 20 30 20 6 0 10 33 10 79 0 74 -1 79 -23
85 -13 3 -34 22 -48 43 -23 36 -27 38 -83 41 -47 2 -59 7 -63 22 -3 10 -17 22
-33 25 -30 7 -88 62 -105 99 -10 24 -11 24 -39 9z m224 -214 c16 -29 12 -59
-8 -59 -10 0 -23 5 -30 12 -12 12 -17 60 -6 71 9 9 34 -4 44 -24z m-110 -29
c0 -13 -7 -20 -20 -20 -13 0 -20 7 -20 20 0 13 7 20 20 20 13 0 20 -7 20 -20z"/>
<path d="M928 3334 c-5 -4 -8 -53 -8 -109 0 -97 -1 -102 -30 -135 -24 -29 -29
-44 -30 -88 0 -48 4 -58 34 -88 31 -31 40 -34 90 -34 l56 0 0 75 0 75 -85 0
c-66 0 -85 3 -85 14 0 20 23 26 101 26 l69 0 0 48 0 47 -47 0 c-37 0 -48 4
-51 18 -3 14 4 17 47 17 l51 0 0 65 c0 55 -3 65 -17 65 -10 0 -34 3 -53 6 -19
3 -38 2 -42 -2z"/>
<path d="M1087 3334 c-4 -4 -7 -36 -7 -71 l0 -64 123 3 122 3 0 65 0 65 -116
3 c-63 1 -118 -1 -122 -4z"/>
<path d="M2325 3293 c-3 -12 -25 -39 -50 -60 -33 -28 -45 -44 -45 -65 0 -20 4
-26 14 -22 8 3 24 1 35 -5 24 -13 81 -93 81 -115 0 -9 11 -16 28 -18 20 -2 27
-8 27 -25 0 -27 6 -33 41 -39 30 -6 53 -29 54 -56 0 -22 -13 -23 -30 -3 -7 8
-17 15 -22 15 -5 0 -32 16 -61 35 -60 41 -65 41 -117 15 -39 -20 -40 -21 -40
-75 l0 -55 133 0 c182 0 172 13 163 -219 l-7 -178 23 -7 c49 -13 94 -6 114 16
16 17 16 20 3 15 -34 -12 -39 13 -39 201 0 101 4 191 8 200 5 9 7 41 4 70 -3
45 -7 52 -26 52 -12 0 -35 8 -52 18 -45 25 -186 181 -182 201 5 26 23 19 62
-27 l36 -44 0 95 0 95 -75 4 c-69 3 -74 2 -80 -19z"/>
<path d="M0 3233 c0 -75 2 -82 24 -97 14 -9 57 -19 95 -22 l71 -7 0 79 0 79
-69 0 c-60 0 -73 3 -95 24 l-26 24 0 -80z"/>
<path d="M224 3297 c3 -10 6 -57 6 -103 l0 -84 136 0 135 0 -3 53 -3 52 -90 3
-90 3 -49 47 c-27 26 -46 39 -42 29z m144 -164 c2 -8 -5 -13 -17 -13 -21 0
-35 13 -24 24 10 10 36 3 41 -11z"/>
<path d="M4850 3280 c0 -5 9 -24 20 -42 l20 -33 0 43 c0 35 -3 42 -20 42 -11
0 -20 -4 -20 -10z"/>
<path d="M2680 3185 l0 -74 35 -7 c54 -10 65 -1 65 50 0 54 -37 106 -76 106
-23 0 -24 -2 -24 -75z"/>
<path d="M3913 3228 c-22 -11 -23 -16 -23 -140 l0 -129 63 3 62 3 3 53 c2 42
0 52 -12 52 -9 0 -16 5 -16 10 0 6 7 10 15 10 11 0 15 11 15 43 0 55 13 67 72
67 41 0 48 3 48 20 0 19 -6 20 -102 19 -57 0 -113 -5 -125 -11z m45 -145 c-2
-20 -9 -29 -26 -31 -30 -4 -41 24 -16 43 30 23 46 18 42 -12z"/>
<path d="M4190 3198 c0 -35 39 -80 89 -103 41 -18 41 -19 41 -72 l0 -53 55 0
55 0 0 70 0 70 -52 1 c-29 1 -59 1 -66 0 -24 -4 -88 46 -105 80 -16 33 -17 34
-17 7z"/>
<path d="M4062 3153 c-13 -24 -5 -202 9 -219 18 -21 85 -18 109 6 13 13 33 20
60 20 46 0 55 13 46 64 -5 27 -14 37 -37 45 -34 12 -89 66 -89 87 0 22 -87 19
-98 -3z"/>
<path d="M1080 3115 l0 -45 55 0 c45 0 60 -5 78 -22 18 -19 32 -22 70 -20 l47
3 0 65 0 64 -125 0 -125 0 0 -45z m219 -34 c15 -27 -10 -47 -38 -31 -24 12
-26 21 -9 38 17 17 36 15 47 -7z"/>
<path d="M2230 3045 c0 -36 4 -65 9 -65 24 0 81 32 81 46 0 18 -62 84 -79 84
-7 0 -11 -24 -11 -65z"/>
<path d="M3550 3103 c-107 -8 -112 -19 -40 -87 47 -44 52 -46 107 -46 l57 0
-31 33 c-39 41 -55 71 -47 91 3 9 5 15 3 14 -2 -1 -24 -3 -49 -5z"/>
<path d="M4470 3034 l0 -77 71 5 c39 3 76 11 82 17 6 6 26 11 44 11 18 0 33 5
33 10 0 6 -7 10 -15 10 -22 0 -19 44 5 65 11 10 17 22 14 26 -3 5 -57 9 -120
9 l-114 0 0 -76z m68 42 c5 -26 -26 -50 -45 -35 -14 12 -17 41 -6 53 13 13 48
1 51 -18z"/>
<path d="M62 3067 c45 -21 68 -49 74 -88 5 -31 12 -40 37 -49 64 -22 67 -30
67 -172 l0 -129 42 23 c28 15 52 39 68 68 23 42 25 57 28 198 l4 152 -149 0
c-81 0 -159 3 -173 5 -25 5 -25 5 2 -8z"/>
<path d="M415 2911 l0 -159 23 9 c13 5 35 9 49 9 21 0 24 3 19 23 -3 12 -6 79
-6 150 l0 127 -42 0 -43 0 0 -159z m73 -3 c-4 -28 -42 -37 -52 -13 -9 24 1 35
30 35 21 0 25 -4 22 -22z"/>
<path d="M533 3054 c-9 -24 4 -255 15 -266 14 -14 69 37 82 77 6 19 12 65 13
101 0 58 -2 69 -22 85 -29 23 -79 25 -88 3z"/>
<path d="M0 2998 c0 -36 6 -50 30 -73 29 -28 30 -28 50 -10 41 37 12 104 -52
120 -27 7 -28 6 -28 -37z"/>
<path d="M758 3019 c-13 -7 -18 -23 -18 -54 0 -36 5 -48 24 -60 19 -13 29 -14
45 -6 17 10 19 18 14 64 -8 65 -25 80 -65 56z"/>
<path d="M1080 2955 l0 -75 33 0 c17 0 37 4 43 8 20 13 34 50 34 90 0 43 -12
52 -77 52 l-33 0 0 -75z"/>
<path d="M5100 3000 c-8 -5 -48 -10 -87 -10 l-73 0 0 -60 c0 -58 2 -62 62
-139 58 -74 63 -77 73 -57 6 11 19 33 28 47 24 37 21 234 -3 219z"/>
<path d="M1224 2940 c-8 -64 -46 -100 -105 -100 l-39 0 0 -56 c0 -30 -5 -65
-11 -76 -15 -29 -2 -337 16 -361 9 -13 33 -20 84 -24 l71 -6 0 108 0 108 -50
48 c-35 34 -50 56 -50 74 0 20 4 26 18 23 9 -2 18 -13 20 -25 2 -12 25 -41 53
-64 l49 -41 0 -79 c0 -43 3 -79 6 -79 3 0 14 5 25 10 16 9 19 22 19 80 0 56 3
70 15 70 12 0 15 -17 15 -90 0 -87 -1 -90 -25 -96 -14 -3 -25 -12 -25 -20 0
-22 158 -19 190 3 44 30 49 44 50 135 l0 87 -97 4 c-54 2 -108 7 -119 11 -17
6 -22 3 -27 -13 -3 -14 -10 -19 -21 -15 -20 8 -21 38 -2 54 11 8 12 18 5 36
-5 14 -9 40 -9 57 l0 32 -95 -3 c-90 -3 -95 -2 -95 17 0 20 6 21 83 21 51 0
88 -5 95 -12 9 -9 12 -5 12 17 0 37 30 88 65 111 20 13 25 24 25 60 l0 44 -70
0 -69 0 -7 -50z m-16 -552 c-3 -25 -43 -37 -61 -19 -15 15 10 41 40 41 20 0
24 -4 21 -22z"/>
<path d="M1410 2948 l0 -43 66 3 65 4 -3 36 -3 37 -62 3 -63 3 0 -43z m108 5
c-3 -30 -25 -42 -34 -19 -9 22 2 46 21 46 12 0 15 -8 13 -27z"/>
<path d="M2688 2964 c-5 -4 -8 -22 -8 -41 l0 -33 80 0 c118 0 103 -29 -23 -45
-44 -6 -58 -12 -63 -27 -3 -11 -3 -22 0 -25 3 -4 6 1 6 10 0 15 12 17 84 17
82 0 85 -1 110 -31 43 -51 27 -149 -24 -149 -28 0 -32 15 -10 43 23 29 25 56
7 81 -10 14 -26 16 -92 14 l-80 -3 -3 -142 -3 -143 39 0 39 0 -10 45 c-9 38
-8 48 8 65 23 25 55 26 88 0 20 -16 40 -20 100 -20 94 0 109 12 105 78 -3 44
-5 47 -37 53 -79 16 -121 79 -121 181 l0 68 -34 0 c-18 0 -60 3 -92 6 -32 3
-62 3 -66 -2z"/>
<path d="M2921 2891 c4 -68 8 -83 28 -105 30 -32 89 -51 126 -42 23 6 26 11
21 32 -9 36 2 49 25 28 28 -25 24 -59 -10 -83 -24 -18 -30 -29 -33 -71 l-3
-50 33 0 c21 0 35 -6 39 -16 9 -24 -17 -36 -64 -30 l-43 6 0 -80 0 -80 60 0
60 0 0 209 c0 236 -2 241 -83 282 -23 12 -49 27 -57 35 -9 7 -35 20 -59 29
l-43 15 3 -79z"/>
<path d="M4645 2936 c-38 -11 -40 -14 -43 -56 -4 -60 -15 -70 -73 -70 -49 0
-89 23 -89 52 0 16 -80 -99 -97 -140 -8 -19 -13 -55 -11 -80 l3 -47 53 -3 52
-3 0 36 c0 47 24 91 58 108 15 8 65 17 112 21 47 4 88 10 93 15 11 11 4 174
-8 177 -5 1 -28 -3 -50 -10z"/>
<path d="M1578 2935 c-2 -3 -3 -39 -1 -82 4 -85 27 -144 75 -190 l28 -27 0
128 c0 121 -1 128 -25 151 -21 22 -64 33 -77 20z"/>
<path d="M3953 2922 l-63 -3 0 -64 c0 -80 -11 -110 -49 -130 -33 -17 -123 -20
-150 -5 -15 7 -24 2 -50 -30 l-31 -39 36 -10 c44 -12 100 -54 124 -93 l18 -29
6 26 c12 46 59 65 164 65 l92 0 0 94 c0 105 -12 131 -55 120 -28 -7 -47 21
-38 55 7 27 49 26 47 -2 -1 -12 6 -17 26 -17 23 0 27 4 23 19 -9 35 -34 46
-100 43z m37 -216 c0 -7 3 -28 6 -45 5 -24 3 -31 -9 -31 -23 0 -27 12 -20 53
5 35 23 52 23 23z"/>
<path d="M4180 2873 c-17 -26 -37 -51 -46 -56 -25 -14 -35 5 -19 36 12 23 12
27 -1 27 -18 0 -21 -10 -27 -87 l-5 -62 91 -3 c78 -3 92 -6 95 -20 3 -16 -7
-18 -93 -18 -85 0 -96 -2 -91 -16 3 -9 6 -34 7 -57 0 -23 3 -36 6 -29 3 8 31
12 88 12 93 0 100 -4 101 -62 0 -45 57 -124 94 -131 47 -10 60 7 60 78 l0 65
-64 0 c-72 0 -70 -2 -81 85 -4 33 -1 65 7 90 14 41 101 174 122 187 6 4 -40 8
-102 8 l-112 0 -30 -47z m95 -224 c0 -7 -8 -15 -17 -17 -18 -3 -25 18 -11 32
10 10 28 1 28 -15z"/>
<path d="M4490 2904 c0 -29 21 -54 45 -54 22 0 25 4 25 35 0 33 -2 35 -35 35
-25 0 -35 -4 -35 -16z"/>
<path d="M97 2875 c-19 -17 -27 -33 -25 -48 3 -19 10 -23 66 -27 l62 -5 0 36
c0 66 -52 88 -103 44z"/>
<path d="M0 2818 l1 -73 19 24 c27 32 27 92 0 109 -19 12 -20 10 -20 -60z"/>
<path d="M1354 2836 c-32 -32 -34 -38 -34 -103 0 -101 7 -107 127 -114 54 -3
99 -5 101 -4 2 2 0 54 -4 118 -8 132 -12 137 -105 137 -45 0 -55 -4 -85 -34z"/>
<path d="M4836 2826 c-57 -53 -46 -95 34 -128 56 -24 64 -40 62 -128 l-2 -78
55 -4 55 -3 0 90 c0 73 -4 96 -20 123 -35 57 -123 162 -136 162 -7 0 -29 -15
-48 -34z"/>
<path d="M190 2770 c0 -6 -27 -10 -61 -10 -51 0 -65 -4 -95 -27 -29 -24 -34
-34 -34 -70 l0 -43 100 0 100 0 0 80 c0 44 -2 80 -5 80 -3 0 -5 -4 -5 -10z"/>
<path d="M2240 2715 l0 -65 40 0 c46 0 95 -21 104 -45 3 -9 6 -42 6 -74 0 -73
-24 -101 -89 -101 -47 0 -81 -14 -81 -34 0 -7 15 -30 33 -51 l33 -38 100 60
99 61 3 74 c1 40 7 82 13 93 5 11 9 56 7 100 l-3 80 -132 3 -133 3 0 -66z
m128 -28 c4 -20 -25 -34 -40 -19 -15 15 -1 44 19 40 10 -2 19 -11 21 -21z
m100 -79 c17 -17 15 -38 -3 -38 -8 0 -15 4 -15 9 0 5 -3 16 -6 25 -7 19 7 21
24 4z"/>
<path d="M473 2733 l-33 -4 0 -200 0 -199 35 0 35 0 0 205 c0 113 -1 204 -2
203 -2 0 -18 -3 -35 -5z m25 -355 c3 -13 -3 -18 -22 -18 -20 0 -26 5 -26 21 0
15 5 20 22 17 13 -2 24 -11 26 -20z"/>
<path d="M5095 2715 c-18 -19 -20 -30 -15 -125 4 -65 11 -115 20 -130 14 -23
15 -19 18 64 2 65 -1 98 -13 122 -19 40 -19 43 2 66 23 26 12 29 -12 3z"/>
<path d="M545 2709 c-4 -12 -5 -102 -4 -200 l4 -179 138 0 137 0 0 35 c0 33
-1 34 -25 23 -30 -13 -52 1 -42 27 10 25 38 30 53 10 12 -17 14 -11 14 47 0
73 -4 78 -70 78 -24 0 -40 -5 -44 -15 -6 -16 -36 -21 -36 -6 0 5 -22 12 -49
16 -79 11 -98 52 -22 46 32 -2 39 1 44 18 7 27 33 27 49 1 12 -18 24 -20 122
-20 l108 0 39 -39 c38 -38 39 -40 39 -110 0 -41 4 -71 10 -71 6 0 10 28 11 63
1 34 3 108 5 165 l4 102 -36 0 c-21 0 -33 -4 -29 -10 3 -5 -1 -10 -9 -10 -9 0
-16 4 -16 9 0 5 -75 9 -166 10 -123 2 -174 6 -195 16 -26 14 -28 13 -34 -6z
m95 -338 c0 -15 -5 -17 -32 -12 -46 9 -48 31 -4 31 29 0 36 -4 36 -19z"/>
<path d="M385 2701 c-8 -27 -89 -99 -119 -107 l-26 -6 0 -132 0 -131 80 3 80
4 0 194 c0 107 -2 194 -4 194 -3 0 -7 -9 -11 -19z"/>
<path d="M4591 2710 c-85 -7 -111 -28 -111 -86 l0 -34 55 0 c87 0 95 -13 95
-158 0 -125 11 -162 50 -162 10 0 21 -6 23 -12 3 -7 6 94 6 225 l1 237 -22 -1
c-13 -1 -56 -5 -97 -9z"/>
<path d="M1588 2508 c-2 -79 -7 -151 -12 -160 -7 -16 -2 -18 48 -18 l56 0 0
130 c0 77 -4 130 -10 130 -5 0 -25 14 -44 31 l-35 30 -3 -143z"/>
<path d="M2237 2554 c-8 -77 -4 -84 54 -84 53 0 69 15 69 67 0 48 -25 73 -74
73 l-43 0 -6 -56z"/>
<path d="M3200 2505 l0 -106 68 7 67 6 83 82 c127 124 131 116 -58 116 l-160
0 0 -105z m147 -21 c3 -8 -1 -23 -10 -32 -14 -14 -20 -14 -42 -2 -27 14 -33
35 -12 43 26 11 58 6 64 -9z"/>
<path d="M3559 2601 c24 -6 23 -9 -37 -73 l-62 -66 0 -75 c0 -69 2 -75 23 -81
37 -10 127 -7 169 6 54 16 108 77 108 123 0 40 -28 101 -58 128 -28 25 -89 46
-132 46 -30 -1 -31 -2 -11 -8z m96 -121 c4 -6 1 -18 -6 -26 -11 -13 -14 -13
-27 0 -8 8 -11 19 -8 25 9 14 33 14 41 1z"/>
<path d="M1820 2500 c0 -98 -3 -94 70 -102 15 -2 32 -15 45 -35 20 -31 22 -32
94 -33 41 0 72 3 69 6 -3 3 -30 18 -60 33 -32 17 -54 35 -56 47 -4 21 -106
121 -134 130 -25 8 -22 32 5 37 19 4 18 4 -5 6 l-28 1 0 -90z"/>
<path d="M0 2550 c0 -29 1 -30 50 -30 54 0 90 -23 90 -59 0 -35 12 -51 36 -51
23 0 24 2 24 85 l0 85 -100 0 -100 0 0 -30z"/>
<path d="M1720 2455 l0 -125 96 0 c80 0 95 2 85 13 -6 8 -26 14 -43 15 -22 1
-40 9 -55 27 -20 23 -23 37 -23 111 l0 84 -30 0 -30 0 0 -125z"/>
<path d="M2770 2566 c0 -7 3 -28 6 -45 l7 -31 77 0 c86 0 110 -14 110 -63 0
-16 6 -27 14 -27 9 0 15 18 20 54 9 80 7 82 -78 82 -64 -1 -78 2 -98 22 -27
25 -58 29 -58 8z"/>
<path d="M3844 2548 c-30 -35 -44 -65 -44 -93 0 -44 46 -26 81 32 12 21 31 48
42 61 l20 22 -40 0 c-29 0 -45 -6 -59 -22z"/>
<path d="M3955 2551 c5 -16 -3 -34 -30 -71 -40 -55 -90 -100 -109 -100 -7 0
-36 -23 -64 -51 -48 -48 -51 -53 -37 -72 8 -12 15 -36 15 -53 0 -19 6 -34 15
-38 11 -4 15 2 15 25 0 43 23 92 56 118 21 17 39 21 73 19 l46 -3 0 -55 c0
-42 -3 -55 -15 -55 -10 0 -16 12 -18 38 -3 29 -7 37 -23 37 -46 0 -79 -45 -79
-106 0 -20 5 -24 29 -24 15 0 41 -10 56 -22 47 -37 53 -66 47 -230 l-5 -148
37 0 36 0 0 356 c0 368 1 375 43 422 20 21 20 22 1 22 -10 0 -36 3 -58 7 -36
6 -38 5 -31 -16z"/>
<path d="M4100 2561 c0 -3 12 -23 28 -45 24 -35 27 -49 30 -143 2 -56 7 -103
11 -103 12 0 91 61 91 71 0 5 19 22 42 39 24 18 34 30 25 30 -22 0 -75 74 -83
115 l-6 33 -69 4 c-38 2 -69 1 -69 -1z"/>
<path d="M860 2441 l0 -111 44 0 c53 0 56 6 56 104 0 81 -10 99 -67 111 l-33
7 0 -111z"/>
<path d="M4480 2476 c0 -43 4 -76 10 -76 25 0 40 -61 40 -165 l0 -105 35 0
c28 0 35 -4 35 -19 0 -16 -8 -20 -37 -23 -38 -3 -38 -3 -41 -50 -3 -47 -3 -48
27 -48 45 0 71 31 71 84 0 46 9 56 56 56 22 0 24 4 24 50 0 35 -4 48 -12 45
-7 -3 -27 4 -45 14 -41 26 -53 68 -53 199 0 101 0 102 -24 102 -13 0 -38 3
-55 6 l-31 7 0 -77z"/>
<path d="M4052 2488 c-8 -8 -12 -48 -12 -115 l0 -103 40 0 40 0 0 93 c0 115
-27 166 -68 125z"/>
<path d="M0 2370 l0 -110 39 0 c54 0 71 26 71 107 0 34 -4 73 -10 87 -8 23
-15 26 -55 26 l-45 0 0 -110z"/>
<path d="M5040 2462 c0 -9 -26 -12 -90 -12 l-90 0 0 -40 c0 -31 5 -43 26 -57
15 -10 40 -30 55 -45 16 -14 46 -29 68 -33 33 -5 41 -3 55 17 20 28 20 38 2
38 -33 0 -30 55 4 68 17 7 16 9 -6 42 -13 19 -24 29 -24 22z"/>
<path d="M2020 2430 c0 -12 7 -20 18 -20 9 0 32 -9 51 -21 24 -14 32 -25 28
-39 -5 -18 0 -20 39 -20 33 0 46 -5 54 -20 11 -20 8 -20 -240 -20 -245 0 -250
0 -250 -20 0 -30 27 -78 51 -91 15 -7 65 -9 162 -4 l142 7 83 53 83 54 -62 66
c-65 68 -103 95 -139 95 -13 0 -20 -7 -20 -20z"/>
<path d="M2698 2442 c17 -11 6 -37 -25 -57 -28 -19 -104 -22 -146 -6 -24 9
-36 5 -105 -36 -113 -68 -111 -60 -43 -127 55 -55 61 -58 118 -63 34 -3 99 -2
146 2 85 7 86 7 92 36 9 40 68 99 138 139 56 31 57 33 57 76 l0 44 -45 0 -45
0 0 -50 c0 -38 -4 -50 -15 -50 -8 0 -15 6 -16 13 0 6 -1 28 -2 47 l-2 35 -60
3 c-35 1 -55 -1 -47 -6z m-174 -151 c10 -16 -5 -41 -24 -41 -23 0 -32 13 -24
34 7 17 39 22 48 7z m-56 -77 c-5 -27 -48 -32 -48 -5 0 22 30 44 43 31 5 -4 7
-16 5 -26z m262 -2 c0 -5 -6 -17 -14 -28 -11 -15 -17 -16 -27 -7 -16 16 -4 43
21 43 11 0 20 -4 20 -8z"/>
<path d="M3387 2410 c-40 -39 -70 -50 -143 -50 l-44 0 0 -249 c0 -245 0 -250
23 -276 17 -20 34 -26 75 -30 l52 -4 0 40 c0 32 7 46 39 78 33 33 39 46 43 92
4 46 14 69 67 148 34 51 60 95 58 97 -2 2 -41 5 -86 6 -76 3 -84 1 -101 -20
-16 -19 -18 -34 -13 -86 6 -72 -5 -102 -61 -155 -34 -33 -36 -39 -36 -96 0
-67 -6 -81 -27 -64 -16 14 -18 112 -2 142 7 12 29 38 50 58 l39 36 0 85 c0 79
2 86 28 111 15 14 38 30 52 35 23 9 25 14 25 76 0 36 0 65 0 65 0 -1 -17 -19
-38 -39z m-97 -161 c0 -52 -2 -60 -17 -57 -22 4 -30 76 -13 108 18 34 30 13
30 -51z"/>
<path d="M147 2326 c-7 -74 -54 -112 -135 -109 -9 1 -12 -34 -12 -143 0 -133
1 -144 20 -154 19 -10 20 -8 20 45 0 71 16 109 75 175 59 66 84 121 85 181 0
41 -3 47 -24 51 -22 4 -24 1 -29 -46z"/>
<path d="M3063 2362 l-93 -3 0 -60 c0 -38 -7 -73 -19 -97 -10 -20 -21 -49 -25
-64 -6 -27 -8 -28 -81 -28 l-75 0 0 -83 c0 -75 2 -83 22 -92 28 -13 40 -56 34
-120 -3 -27 -3 -42 0 -32 5 16 12 18 52 12 26 -4 67 -17 92 -30 51 -25 110
-38 134 -29 22 9 21 56 -4 104 -24 46 -25 73 -5 90 20 17 38 2 31 -26 -4 -14
0 -37 9 -54 22 -43 20 -123 -5 -145 -26 -23 -106 -15 -156 16 -28 17 -37 19
-49 9 -18 -15 -45 -6 -45 15 0 20 -46 20 -54 -1 -3 -9 -6 -26 -6 -40 0 -30
-28 -22 -36 12 l-6 24 -42 -25 c-37 -22 -55 -25 -138 -25 -86 0 -96 -2 -116
-23 -12 -13 -22 -33 -22 -45 0 -22 1 -22 187 -22 l186 0 41 -45 c23 -25 47
-45 54 -45 29 0 62 -48 63 -92 0 -24 3 -37 6 -30 3 8 29 12 79 12 l74 0 0 50
c0 45 2 50 23 50 20 0 22 -4 19 -50 l-4 -50 49 0 50 0 -2 92 c-3 116 -6 118
-136 118 -54 0 -104 -3 -113 -6 -9 -3 -25 -21 -37 -40 -11 -19 -27 -34 -35
-34 -18 0 -18 3 6 50 33 65 52 72 184 68 105 -3 117 -5 140 -27 21 -20 26 -34
26 -75 0 -86 11 -125 42 -157 26 -26 37 -29 89 -29 l59 0 0 87 0 86 47 46 c47
45 48 46 52 118 l3 73 -73 0 c-41 0 -91 -3 -111 -6 l-37 -6 -5 -97 c-9 -168
-17 -221 -31 -221 -22 0 -29 78 -11 129 9 24 16 76 16 116 l0 72 -66 6 c-57 4
-71 9 -98 36 l-31 31 -5 268 -5 267 -92 -3z m51 -167 c32 -29 35 -82 7 -116
-15 -19 -29 -24 -66 -24 l-46 0 7 -97 c7 -107 -6 -148 -46 -148 -24 0 -26 13
-5 30 20 17 21 226 1 253 -19 24 -4 86 26 109 34 26 90 23 122 -7z m-269 -145
c4 -6 19 -9 33 -8 21 2 27 -1 27 -17 0 -11 -8 -21 -18 -23 -23 -5 -67 24 -67
43 0 17 16 20 25 5z m325 -507 c0 -12 -33 -43 -46 -43 -22 0 -28 23 -9 37 20
14 55 18 55 6z m74 -15 c5 -9 7 -20 3 -24 -10 -11 -57 17 -57 33 0 20 40 13
54 -9z m-166 -76 c2 -14 -2 -22 -12 -22 -19 0 -29 17 -22 36 8 22 30 12 34
-14z"/>
<path d="M3012 2168 c-7 -7 -12 -21 -12 -33 0 -28 19 -45 50 -45 31 0 50 17
50 45 0 28 -19 45 -50 45 -14 0 -31 -5 -38 -12z"/>
<path d="M4361 2360 c-19 -5 -55 -29 -85 -58 -28 -27 -66 -57 -84 -66 -41 -21
-39 -31 34 -140 30 -44 54 -85 54 -93 0 -9 19 -13 70 -13 l70 0 0 43 c0 30 -6
48 -20 60 -22 19 -26 57 -8 75 9 9 4 12 -24 12 -40 0 -78 -35 -78 -72 0 -29
-24 -16 -28 14 -5 41 45 90 99 97 l44 6 5 73 c3 45 1 72 -5 71 -5 -1 -25 -5
-44 -9z"/>
<path d="M4456 2338 c-3 -7 -6 -57 -8 -110 -4 -97 -4 -98 19 -98 23 0 24 1 21
107 -2 74 -7 108 -15 111 -7 2 -15 -2 -17 -10z"/>
<path d="M997 2323 c-13 -12 -7 -41 10 -47 20 -8 44 19 36 40 -5 14 -35 19
-46 7z"/>
<path d="M2910 2303 c-47 -17 -113 -70 -131 -104 -24 -49 -10 -51 25 -4 28 37
61 45 85 23 18 -18 41 16 41 59 0 18 -1 33 -2 32 -2 0 -10 -3 -18 -6z"/>
<path d="M653 2283 l-103 -4 0 -54 c0 -48 3 -56 30 -75 16 -12 29 -29 28 -38
-2 -15 21 -75 55 -142 7 -14 23 -26 35 -28 22 -3 22 -2 22 132 0 126 -1 135
-20 141 -11 4 -20 15 -20 27 0 17 4 19 27 13 51 -13 53 -18 53 -171 l0 -144
30 0 30 0 0 169 c0 161 -1 169 -19 164 -10 -3 -22 0 -25 6 -4 6 -10 10 -14 9
-4 -1 -53 -4 -109 -5z"/>
<path d="M1337 2272 c7 -17 -16 -42 -38 -42 -14 0 -19 -7 -19 -29 0 -28 3 -30
43 -33 29 -2 42 -8 42 -18 0 -10 -13 -16 -42 -18 l-43 -3 0 -116 0 -116 107
-103 c66 -64 118 -106 136 -110 16 -3 30 -4 31 -2 2 1 16 30 32 63 15 33 30
63 32 67 2 4 -9 8 -25 10 -34 4 -40 41 -8 46 11 2 26 11 33 20 14 19 16 108 2
117 -16 10 -12 51 6 66 14 11 19 10 35 -10 15 -19 17 -33 12 -81 -6 -61 9
-102 45 -124 22 -13 42 -71 42 -126 0 -54 1 -55 31 -40 16 9 19 22 19 76 0 53
5 76 27 115 25 47 53 63 68 39 8 -13 45 -13 45 0 0 5 12 16 28 24 l27 14 -28
7 c-41 11 -57 41 -57 107 0 32 -4 58 -8 58 -4 0 -6 -16 -4 -36 4 -31 2 -35
-14 -32 -14 2 -19 12 -19 36 0 32 0 32 -52 32 -41 0 -58 5 -83 26 -37 31 -60
73 -60 109 0 45 -33 29 -118 -59 l-82 -84 0 -104 c0 -101 -1 -105 -27 -130
-50 -46 -83 -62 -96 -49 -9 10 -5 17 18 34 67 49 66 49 63 165 -3 104 -4 106
-28 112 -14 3 -25 12 -26 20 0 8 -4 23 -8 32 -10 23 1 38 27 38 13 0 26 -9 32
-22 6 -12 18 -26 27 -32 19 -12 40 4 90 67 l30 38 -125 -3 c-95 -2 -123 -6
-120 -16z m201 -195 c4 -20 -25 -34 -40 -19 -15 15 -1 44 19 40 10 -2 19 -11
21 -21z m276 -75 c7 -11 -73 -117 -88 -117 -18 0 -8 25 32 76 38 49 47 56 56
41z m-444 -82 c0 -13 -7 -20 -20 -20 -19 0 -27 20 -13 33 13 14 33 6 33 -13z"/>
<path d="M230 2254 c-6 -14 -10 -29 -10 -34 0 -4 -21 -36 -47 -70 -96 -125
-93 -118 -93 -186 0 -58 3 -67 34 -101 41 -47 56 -75 56 -105 0 -13 11 -39 25
-58 27 -36 34 -34 11 3 -7 12 -14 44 -14 70 0 36 -6 55 -21 71 -27 29 -41 77
-41 144 0 53 13 92 29 92 5 0 11 -40 13 -88 4 -117 9 -122 109 -122 79 0 79 0
99 -32 11 -18 20 -41 20 -50 0 -20 8 -22 44 -8 21 8 28 5 45 -16 21 -26 18
-54 -5 -54 -7 0 -17 6 -21 14 -5 8 -27 16 -53 18 -44 3 -45 4 -50 43 l-5 40
-62 3 -63 3 0 -49 c0 -56 12 -72 56 -72 46 0 84 -16 122 -53 29 -28 47 -77 22
-62 -6 4 -10 -5 -10 -20 0 -23 2 -25 23 -14 12 6 50 32 85 56 l62 44 0 92 c-1
53 -6 101 -13 113 -7 11 -48 53 -93 92 l-81 71 -17 -40 c-19 -43 -58 -69 -105
-69 -41 0 -52 25 -58 124 -5 72 -3 84 16 107 34 43 124 50 134 11 3 -9 5 13 6
51 l1 67 -70 0 c-66 0 -71 -1 -80 -26z m160 -394 c0 -5 -2 -10 -4 -10 -3 0 -8
5 -11 10 -3 6 -1 10 4 10 6 0 11 -4 11 -10z m64 -6 c8 -21 -1 -34 -24 -34 -22
0 -34 15 -26 35 7 20 42 19 50 -1z"/>
<path d="M437 2256 c3 -13 0 -27 -6 -30 -14 -9 -14 -43 -1 -51 22 -14 103 -34
91 -22 -6 6 -11 37 -11 69 l0 58 -39 0 c-35 0 -38 -2 -34 -24z"/>
<path d="M860 2196 l0 -83 42 -6 c23 -3 53 -14 67 -25 26 -19 26 -21 29 -170
l3 -150 40 -4 40 -4 -3 86 c-3 79 -4 85 -25 88 -34 5 -48 66 -28 122 19 54 20
153 1 169 -7 6 -20 9 -28 6 -18 -7 -48 19 -48 41 0 10 -13 14 -45 14 l-45 0 0
-84z"/>
<path d="M1090 2270 c0 -5 11 -10 25 -10 16 0 25 -6 25 -15 0 -18 -21 -20 -37
-4 -7 7 -19 9 -28 5 -13 -5 -14 -10 -5 -27 12 -21 9 -141 -5 -191 -6 -23 -2
-34 24 -63 l31 -36 0 -204 0 -205 53 -24 c40 -17 57 -31 66 -55 13 -29 16 -31
67 -31 l54 0 0 45 c0 27 -8 57 -20 77 -11 18 -20 47 -20 65 0 36 -28 58 -59
48 -26 -8 -51 4 -51 25 0 26 9 29 60 20 55 -10 90 -47 90 -94 0 -52 28 -70
123 -77 45 -4 85 -4 88 0 4 3 9 18 13 33 6 24 4 27 -21 25 -22 -2 -28 2 -28
18 0 16 6 20 28 18 15 -1 27 2 27 8 0 5 -2 9 -4 9 -2 0 -27 4 -55 10 -48 9
-62 19 -172 122 l-119 113 0 202 0 203 -75 0 c-43 0 -75 -4 -75 -10z m204
-504 c40 -17 48 -27 36 -46 -8 -13 -13 -13 -42 0 -18 8 -60 15 -93 15 -54 1
-60 3 -63 23 -3 21 0 22 63 22 36 0 81 -6 99 -14z"/>
<path d="M3628 2263 c-16 -2 -28 -8 -28 -12 0 -5 -29 -53 -65 -107 -56 -86
-65 -105 -65 -146 0 -40 -6 -53 -40 -93 -28 -32 -40 -55 -40 -77 0 -29 2 -30
31 -24 17 3 65 6 105 6 l74 0 0 46 c0 31 -7 54 -20 71 -30 39 -28 116 5 149
19 18 31 23 48 19 47 -14 53 -45 30 -145 -5 -22 1 -18 46 25 47 45 51 53 51
96 0 44 -2 47 -31 53 -24 4 -30 11 -29 28 5 53 0 67 -22 70 -17 2 -23 9 -22
26 0 12 0 21 0 21 -1 -1 -13 -4 -28 -6z"/>
<path d="M2173 2194 c-77 -47 -102 -57 -153 -61 l-60 -6 0 -37 0 -38 58 4 c87
7 138 -31 149 -112 l5 -39 96 3 c128 5 132 8 132 124 l0 90 -62 64 c-33 35
-64 64 -67 64 -3 0 -48 -25 -98 -56z m82 -78 c-7 -44 -7 -45 26 -54 44 -11 53
-42 13 -42 -35 0 -94 55 -94 86 0 38 11 54 37 54 23 0 24 -2 18 -44z"/>
<path d="M4750 2208 l0 -38 64 0 c58 0 64 2 70 23 11 43 8 45 -64 49 l-70 3 0
-37z"/>
<path d="M4040 2162 l0 -69 39 -12 c69 -20 81 -46 81 -175 0 -74 -4 -116 -12
-124 -9 -9 -9 -12 1 -12 7 0 30 17 51 38 70 70 64 153 -22 286 -21 33 -43 77
-50 98 -10 35 -14 38 -50 38 l-38 0 0 -68z"/>
<path d="M4922 2179 c-15 -62 -15 -72 -2 -64 15 9 44 -10 116 -76 37 -32 70
-59 75 -59 5 0 9 15 9 34 0 26 -7 39 -33 59 -33 25 -33 26 -29 91 l4 66 -64 0
-65 0 -11 -51z"/>
<path d="M5100 2181 c0 -31 -5 -51 -12 -53 -8 -3 -4 -9 10 -17 22 -12 22 -11
22 54 0 37 -4 65 -10 65 -5 0 -10 -22 -10 -49z"/>
<path d="M2834 2173 c-20 -20 -6 -28 32 -19 21 6 24 9 14 21 -16 19 -25 19
-46 -2z"/>
<path d="M272 2128 c-14 -14 -16 -136 -3 -157 12 -19 57 -6 75 22 7 12 16 50
20 85 l6 62 -43 0 c-24 0 -48 -5 -55 -12z"/>
<path d="M416 2132 c-4 -3 -6 -15 -6 -28 0 -15 30 -50 98 -113 l97 -90 3 35
c4 41 -37 138 -65 152 -38 21 -122 50 -127 44z"/>
<path d="M4750 2070 l0 -60 65 0 65 0 0 60 0 60 -65 0 -65 0 0 -60z"/>
<path d="M3800 2074 c0 -45 -26 -104 -53 -121 -28 -18 -67 -76 -67 -100 0 -30
61 -93 91 -93 16 0 19 7 19 48 0 50 16 93 38 100 9 3 11 -12 6 -67 -7 -69 -6
-70 19 -76 14 -4 29 -5 34 -2 4 3 8 73 7 156 -1 144 -2 152 -24 176 -13 14
-34 25 -47 25 -21 0 -23 -5 -23 -46z"/>
<path d="M2440 2048 c0 -34 2 -59 5 -56 3 3 21 31 40 62 l34 56 -40 0 -39 0 0
-62z"/>
<path d="M2550 2098 c0 -7 -27 -53 -60 -103 -49 -74 -60 -97 -60 -132 0 -55
-7 -71 -41 -88 -46 -24 -129 -18 -129 10 0 8 21 14 61 17 66 5 79 15 79 63 0
22 -3 26 -12 17 -8 -8 -47 -12 -110 -12 l-98 0 -2 -52 c-2 -29 -3 -95 -3 -145
l0 -93 58 0 c32 0 68 -5 80 -11 12 -7 75 -63 139 -125 64 -62 129 -116 143
-120 33 -8 112 1 148 17 24 11 26 16 22 48 -8 49 12 82 63 108 l42 21 -26 21
c-25 20 -39 21 -205 21 -172 0 -179 -1 -179 -20 0 -19 7 -20 109 -20 l109 0
36 -40 c34 -37 47 -70 28 -70 -4 0 -23 16 -42 35 l-34 35 -106 0 c-132 0 -138
5 -139 102 0 84 25 128 83 142 l37 10 -1 100 c-2 135 -2 136 15 136 13 0 15
-20 15 -120 l0 -120 55 0 c43 0 67 7 111 31 l55 31 -3 52 -3 51 -52 3 c-30 2
-53 -1 -53 -7 0 -19 -52 -71 -71 -71 -27 0 -24 26 5 46 24 15 25 21 28 130 l3
114 -47 0 c-32 0 -48 -4 -48 -12z m157 -286 c6 -4 13 -16 15 -27 2 -15 -3 -21
-23 -23 -29 -3 -54 20 -45 43 6 16 33 20 53 7z m-419 -169 c-4 -59 -23 -67
-32 -13 -7 46 -2 60 20 60 12 0 14 -11 12 -47z"/>
<path d="M2680 2025 l0 -85 28 0 27 0 -3 85 c-3 82 -4 85 -28 85 -24 0 -24 -2
-24 -85z"/>
<path d="M4473 2083 c-16 -6 -18 -89 -3 -98 14 -9 22 16 18 62 -2 27 -7 38
-15 36z"/>
<path d="M4920 2056 c0 -34 1 -36 35 -36 43 0 43 7 -1 43 l-34 29 0 -36z"/>
<path d="M860 2009 l0 -69 34 0 c19 0 38 -4 41 -10 15 -25 25 -5 25 49 0 66
-9 78 -65 91 l-35 8 0 -69z"/>
<path d="M4655 2038 c-4 -22 -18 -52 -31 -65 -20 -20 -33 -23 -94 -23 l-70 0
0 -150 0 -150 79 0 c43 0 99 3 125 6 l46 7 0 126 c0 69 -3 163 -7 209 -5 69
-9 82 -24 82 -13 0 -19 -11 -24 -42z m-26 -111 c14 -18 4 -27 -31 -27 -24 0
-28 -4 -28 -30 0 -32 30 -70 56 -70 21 0 14 -34 -9 -38 -10 -2 -32 11 -52 31
-32 32 -35 40 -35 91 l0 56 44 0 c24 0 48 -6 55 -13z m-19 -192 c16 -20 4 -35
-30 -35 -30 0 -45 21 -27 39 15 15 42 14 57 -4z"/>
<path d="M3613 2053 c-15 -5 -17 -81 -3 -103 13 -21 17 -12 22 48 5 54 2 63
-19 55z"/>
<path d="M4040 1910 l0 -150 24 0 c55 0 56 3 56 130 0 125 -2 130 -57 159
l-23 12 0 -151z"/>
<path d="M1964 2022 c4 -7 21 -15 39 -20 25 -6 33 -14 35 -35 2 -18 -2 -29
-12 -33 -34 -13 -13 -24 45 -24 l62 0 -6 37 c-9 53 -28 67 -90 68 -29 1 -59 5
-66 10 -10 5 -12 4 -7 -3z"/>
<path d="M4750 1815 c0 -91 3 -165 8 -165 4 0 7 42 7 93 0 89 1 92 24 95 34 5
48 -13 28 -36 -11 -12 -17 -36 -17 -65 0 -63 33 -87 119 -87 54 0 61 -2 61
-20 0 -17 -7 -20 -50 -20 -45 0 -50 -2 -50 -22 0 -13 -3 -33 -6 -46 -7 -23 -6
-23 77 -20 l84 3 0 102 c0 93 -2 104 -24 127 -17 18 -36 26 -70 28 -38 2 -46
7 -48 23 -1 11 -5 55 -8 98 l-7 77 -64 0 -64 0 0 -165z"/>
<path d="M4920 1918 c0 -73 5 -82 45 -92 85 -21 115 -76 115 -214 0 -128 -4
-132 -123 -132 l-87 0 0 -50 0 -50 43 0 c23 0 79 -3 125 -7 l82 -6 0 242 0
241 -95 0 c-88 0 -95 1 -95 20 0 19 7 20 95 20 88 0 95 1 95 20 0 11 -16 30
-37 45 -30 20 -50 25 -100 25 l-63 0 0 -62z"/>
<path d="M4283 1889 c-13 -68 -48 -121 -99 -151 -34 -20 -34 -20 -34 -98 0
-73 2 -79 26 -95 18 -12 25 -23 22 -39 -3 -17 5 -29 34 -51 21 -16 38 -32 38
-36 0 -21 -25 -18 -59 5 -20 14 -40 26 -44 26 -4 0 -7 -46 -7 -102 -1 -79 -5
-112 -19 -142 -32 -68 -24 -76 90 -76 55 0 99 2 99 4 0 1 -5 16 -10 32 -7 18
-7 52 -2 90 8 56 6 63 -16 89 -26 30 -25 54 6 112 16 32 16 33 -6 49 -18 13
-21 19 -11 30 13 16 57 18 79 4 13 -8 13 -13 -3 -39 -23 -39 -22 -57 4 -64 29
-8 19 -31 -15 -35 -21 -3 -27 -8 -24 -25 2 -17 11 -23 41 -25 40 -3 51 -26 17
-35 -39 -10 -55 -121 -24 -165 12 -18 25 -22 70 -22 30 0 54 3 54 6 0 3 -13
24 -29 47 l-30 42 -7 363 -7 362 -61 0 -61 0 -12 -61z m102 -11 c29 -100 11
-233 -36 -258 -10 -6 -57 -10 -104 -10 -77 0 -86 2 -83 18 3 14 16 17 86 20
80 3 82 3 98 34 12 24 15 49 11 112 -3 44 -8 93 -12 109 -6 21 -4 27 8 27 11
0 22 -18 32 -52z"/>
<path d="M654 1859 c-1 -59 -1 -59 28 -59 23 0 29 -4 26 -17 -2 -14 -14 -18
-43 -19 l-40 0 -3 -52 c-3 -49 -1 -54 41 -99 24 -27 47 -55 50 -63 3 -8 5 66
4 165 l-2 180 -25 4 c-14 1 -27 7 -30 11 -3 5 -6 -18 -6 -51z"/>
<path d="M3645 1909 c-4 -6 -5 -12 -2 -15 2 -3 7 2 10 11 7 17 1 20 -8 4z"/>
<path d="M760 1647 c0 -297 4 -287 -98 -287 l-62 0 0 -61 0 -61 31 26 c43 37
93 35 147 -5 l42 -31 0 109 c0 107 0 110 -22 109 -22 -1 -23 3 -26 84 -3 81
-1 87 23 110 24 23 25 28 25 142 l0 118 -30 0 -30 0 0 -253z"/>
<path d="M862 1833 l3 -67 48 -1 47 -2 0 63 c0 64 -6 74 -28 52 -9 -9 -16 -8
-30 5 -35 32 -43 22 -40 -50z"/>
<path d="M1879 1871 c-20 -16 -24 -30 -27 -95 -4 -65 -2 -76 12 -76 13 0 16
12 16 69 0 54 4 74 21 95 24 30 12 34 -22 7z"/>
<path d="M0 1860 c0 -22 7 -25 29 -11 11 7 9 11 -8 20 -18 10 -21 9 -21 -9z"/>
<path d="M1994 1855 c-4 -9 -4 -45 -2 -81 3 -49 9 -69 21 -76 21 -11 22 -38 2
-38 -11 0 -15 -11 -15 -40 l0 -40 68 0 67 0 -3 145 -3 145 -65 0 c-49 0 -66
-4 -70 -15z"/>
<path d="M1931 1846 c-6 -7 -14 -43 -18 -80 -6 -66 -6 -66 20 -66 25 0 26 2
29 80 3 81 -5 98 -31 66z"/>
<path d="M61 1814 c-8 -10 -22 -13 -37 -10 -28 7 -30 0 -8 -25 8 -9 19 -46 24
-80 9 -58 8 -66 -10 -81 -20 -16 -19 -17 16 -60 50 -59 71 -71 116 -70 26 1
41 -3 44 -13 4 -8 11 -12 16 -9 6 4 9 1 6 -7 -6 -18 -82 -24 -119 -9 -16 7
-47 32 -69 56 l-40 44 0 -96 0 -95 68 -68 c59 -59 73 -69 115 -75 64 -10 66
-36 2 -36 -59 0 -94 18 -144 77 l-41 48 0 -74 c0 -59 3 -72 14 -68 17 7 40
-18 31 -33 -3 -5 -15 -10 -26 -10 -14 0 -19 -7 -19 -30 l0 -29 103 -3 c83 -2
102 -6 102 -18 0 -12 -19 -16 -103 -18 l-103 -3 2 -249 c2 -138 6 -250 11
-250 4 0 8 81 8 180 0 249 7 260 170 260 l90 0 0 158 0 159 -30 -5 c-21 -3
-30 0 -30 10 0 19 20 38 42 38 10 0 18 4 18 9 0 5 -8 8 -17 7 -12 -1 -19 7
-21 23 -3 21 -1 23 22 17 32 -8 34 6 4 27 -32 21 -14 35 48 38 42 2 52 6 62
27 l12 25 -25 -23 c-20 -19 -32 -22 -66 -17 -22 3 -51 14 -62 25 -13 12 -39
22 -62 24 -57 4 -55 32 3 36 l42 3 0 55 c0 39 -4 54 -14 54 -7 0 -20 7 -27 16
-7 9 -24 20 -37 25 -20 8 -23 15 -21 49 3 32 -2 45 -21 64 -22 22 -27 23 -39
10z m29 -425 c0 -6 8 -8 19 -4 20 6 46 -18 36 -35 -9 -14 -57 -12 -77 4 -24
18 -23 46 2 46 11 0 20 -5 20 -11z"/>
<path d="M1632 1762 c-35 -74 -32 -82 33 -82 l56 0 -3 63 c-3 61 -3 62 -33 64
-27 3 -32 -2 -53 -45z"/>
<path d="M3646 1743 c-3 -21 -6 -62 -6 -91 0 -42 -4 -56 -22 -70 -66 -53 -68
-56 -68 -142 l0 -80 120 0 120 0 -2 183 c-1 100 -4 145 -5 99 l-4 -83 -62 3
c-61 3 -62 4 -65 33 -3 24 -1 28 9 18 7 -7 29 -13 49 -13 l37 0 -4 58 c-4 51
-9 60 -41 89 -20 18 -40 33 -43 33 -4 0 -9 -17 -13 -37z"/>
<path d="M1000 1583 l0 -143 40 0 40 0 0 143 0 142 -40 0 -40 0 0 -142z"/>
<path d="M857 1679 c-3 -23 -15 -51 -26 -63 -12 -12 -21 -26 -21 -32 0 -5 4
-3 9 5 14 21 52 7 104 -40 39 -34 47 -37 47 -21 0 41 -13 82 -26 82 -21 0 -17
44 6 58 11 7 20 21 20 32 0 17 -7 20 -54 20 l-53 0 -6 -41z"/>
<path d="M3830 1540 l0 -180 85 0 85 0 0 83 0 82 -35 22 c-48 32 -66 63 -68
122 -2 50 -2 51 -34 51 l-33 0 0 -180z"/>
<path d="M3930 1684 c0 -39 14 -72 39 -91 28 -21 31 -15 31 57 l0 70 -35 0
c-33 0 -35 -2 -35 -36z"/>
<path d="M4040 1620 c0 -89 2 -100 18 -100 9 0 27 -3 40 -6 22 -6 22 -5 22
100 l0 106 -40 0 -40 0 0 -100z"/>
<path d="M260 1646 c0 -23 3 -26 23 -21 30 8 77 -10 77 -30 0 -19 -86 -22 -93
-2 -3 6 -6 -7 -6 -30 -1 -40 17 -73 41 -73 6 0 26 9 44 21 30 18 34 26 34 64
0 57 -23 85 -78 92 -40 5 -42 5 -42 -21z"/>
<path d="M1807 1650 l-27 -17 20 -26 c18 -22 29 -26 90 -29 l70 -3 0 43 0 43
-53 -2 c-30 -1 -58 0 -63 3 -5 3 -21 -2 -37 -12z"/>
<path d="M1630 1582 c0 -26 6 -54 13 -61 10 -10 9 -15 -5 -25 -12 -8 -18 -27
-18 -50 l0 -36 98 0 c79 0 103 4 130 20 18 11 41 20 51 20 25 0 51 31 51 61 0
23 -3 25 -53 22 -67 -3 -115 20 -136 64 -15 31 -19 33 -73 33 l-58 0 0 -48z"/>
<path d="M4750 1495 l0 -120 40 0 40 -1 0 53 0 53 -35 0 c-28 0 -35 4 -35 20
0 17 7 20 40 20 40 0 40 0 40 39 0 46 -15 61 -58 58 l-32 -2 0 -120z"/>
<path d="M575 1600 c-4 -6 -39 -29 -79 -53 l-73 -42 -2 -125 -2 -125 70 3 71
4 0 49 0 49 -65 0 c-58 0 -65 2 -65 20 0 18 7 20 64 20 45 0 64 4 63 13 -1 39
4 48 26 45 16 -2 22 -9 20 -28 -1 -22 3 -25 39 -28 71 -5 78 2 78 68 0 47 -3
58 -14 54 -8 -3 -29 13 -52 40 -37 44 -66 57 -79 36z m94 -79 c8 -15 7 -20 -6
-25 -33 -13 -69 15 -46 37 13 14 43 7 52 -12z"/>
<path d="M4460 1515 l0 -95 43 0 c40 0 48 5 89 50 35 39 52 50 76 50 31 0 42
17 42 68 0 22 -2 22 -125 22 l-125 0 0 -95z"/>
<path d="M823 1505 c0 -27 2 -38 4 -22 2 15 2 37 0 50 -2 12 -4 0 -4 -28z"/>
<path d="M860 1465 l0 -75 83 0 c79 1 81 1 50 15 -26 11 -33 20 -33 43 0 22
-10 35 -44 60 -24 18 -47 32 -50 32 -3 0 -6 -34 -6 -75z"/>
<path d="M2053 1532 l-63 -3 0 -33 c0 -28 12 -47 73 -110 72 -76 72 -76 124
-76 43 0 61 6 99 33 40 28 53 32 107 31 l62 -1 -77 78 c-64 66 -83 79 -110 80
-18 0 -60 1 -93 2 -33 1 -88 1 -122 -1z m30 -88 c-6 -16 -29 -19 -38 -4 -4 6
-1 17 5 26 15 18 42 0 33 -22z"/>
<path d="M4150 1511 c0 -5 7 -12 16 -15 14 -5 15 -4 4 9 -14 17 -20 19 -20 6z"/>
<path d="M1400 1448 l0 -38 90 0 90 0 0 36 c0 19 -3 33 -7 31 -5 -2 -45 -2
-90 2 l-83 6 0 -37z"/>
<path d="M4643 1472 c-10 -11 -31 -33 -46 -51 -16 -17 -41 -34 -55 -37 -78
-17 -77 -16 -74 -80 1 -32 7 -63 13 -69 5 -5 59 -12 119 -13 l110 -4 0 61 0
62 -37 -26 c-47 -31 -93 -34 -93 -5 0 11 6 21 13 21 6 1 19 3 27 3 8 1 32 12
53 25 37 23 38 25 35 75 -3 44 -6 51 -25 54 -12 2 -30 -5 -40 -16z"/>
<path d="M4040 1419 l0 -59 40 0 40 0 0 48 c0 47 0 48 -40 59 l-40 10 0 -58z"/>
<path d="M1120 1458 c0 -8 11 -14 28 -13 24 0 27 -4 30 -36 2 -29 -2 -41 -22
-57 -23 -18 -26 -27 -26 -85 0 -36 5 -69 10 -72 6 -3 10 1 10 11 0 9 14 32 30
51 26 29 30 41 30 93 0 47 -4 64 -22 84 -28 29 -68 44 -68 24z"/>
<path d="M2866 1461 c-43 -5 -51 -10 -59 -34 -5 -15 -6 -39 -3 -52 6 -24 10
-25 75 -25 73 0 81 5 81 54 0 23 -26 67 -38 64 -4 0 -29 -4 -56 -7z"/>
<path d="M1930 1417 c-11 -9 -14 -28 -12 -77 3 -71 13 -90 48 -90 14 0 42 -18
71 -45 25 -25 48 -45 50 -45 2 0 17 15 34 33 26 28 35 32 79 31 46 0 50 1 50
23 0 22 -4 23 -65 23 l-66 0 -76 80 c-42 44 -81 80 -87 80 -6 0 -18 -6 -26
-13z"/>
<path d="M344 1386 c-18 -13 -19 -30 -20 -223 0 -114 1 -182 3 -149 4 51 6 57
23 53 11 -3 21 1 24 10 9 24 7 311 -3 317 -4 3 -17 -1 -27 -8z"/>
<path d="M1115 1390 c-3 -5 1 -10 9 -10 9 0 16 5 16 10 0 6 -4 10 -9 10 -6 0
-13 -4 -16 -10z"/>
<path d="M1860 1385 c-14 -8 -46 -17 -72 -21 -51 -7 -58 -17 -58 -91 0 -49 26
-83 63 -83 36 -1 103 -36 152 -81 l46 -42 28 34 28 33 -20 28 c-21 28 -73 58
-101 58 -31 0 -48 45 -44 115 1 36 3 65 3 65 0 -1 -11 -7 -25 -15z"/>
<path d="M1043 1383 c9 -2 23 -2 30 0 6 3 -1 5 -18 5 -16 0 -22 -2 -12 -5z"/>
<path d="M1250 1327 c0 -36 -6 -49 -45 -92 l-45 -49 55 -56 c46 -46 54 -59 42
-68 -10 -9 -24 -1 -62 38 l-48 49 -34 -35 c-32 -35 -33 -37 -33 -125 l0 -89
60 0 c33 0 60 4 60 9 0 18 -63 62 -82 58 -21 -6 -30 5 -22 27 4 9 18 16 33 16
28 0 47 -14 93 -68 15 -18 37 -33 50 -35 23 -2 23 -1 28 130 5 120 7 134 30
165 19 25 25 48 28 101 l4 67 -56 0 -56 0 0 -43z m-44 -292 c10 -24 -5 -36
-27 -24 -16 8 -18 13 -8 25 15 18 28 18 35 -1z"/>
<path d="M1400 1310 c0 -59 -24 -129 -50 -145 -6 -4 -10 -59 -10 -135 l0 -128
27 -7 c15 -3 38 -15 52 -25 l26 -18 -3 135 c-4 156 4 176 89 238 48 36 49 38
49 91 l0 54 -90 0 -90 0 0 -60z m37 -42 c14 -18 34 -80 28 -87 -11 -10 -45 34
-51 67 -7 33 5 43 23 20z"/>
<path d="M1620 1303 l0 -62 -55 -41 c-78 -58 -84 -73 -86 -233 l-1 -136 35
-63 c44 -78 92 -126 132 -130 l30 -3 3 82 c1 46 -1 91 -6 100 -11 22 -5 43 12
43 9 0 11 14 6 52 -5 38 -14 57 -34 75 -31 27 -89 31 -113 8 -16 -16 -33 -12
-33 9 0 26 39 49 84 49 73 0 136 -63 136 -137 0 -17 7 -27 23 -32 32 -9 56
-33 79 -77 17 -35 21 -37 32 -22 6 9 34 29 61 43 l50 27 3 75 c2 60 -2 81 -17
107 -26 42 -102 92 -165 109 -33 9 -61 24 -78 44 -24 26 -28 39 -28 93 0 35 4
67 10 73 6 6 -6 9 -35 9 l-45 0 0 -62z m147 -220 c34 -23 53 -74 53 -147 0
-36 -4 -66 -8 -66 -21 0 -32 29 -32 85 0 48 -4 66 -20 83 -23 24 -50 28 -81
12 -30 -17 -39 18 -10 41 25 20 58 17 98 -8z m103 -209 c0 -9 -7 -14 -17 -12
-25 5 -28 28 -4 28 12 0 21 -6 21 -16z"/>
<path d="M3258 1361 c-53 -6 -59 -9 -91 -51 -65 -86 -65 -86 3 -93 81 -9 150
1 177 26 16 15 42 22 90 26 61 5 68 8 71 29 3 21 0 22 -60 22 -53 0 -70 4 -98
25 -19 14 -34 24 -34 23 -1 -1 -27 -4 -58 -7z"/>
<path d="M2977 1335 c-17 -23 -24 -25 -100 -25 -45 0 -104 -7 -131 -15 -27 -8
-75 -15 -106 -15 l-57 0 5 -30 4 -30 193 0 c106 0 213 -3 239 -6 36 -5 46 -4
46 7 0 8 11 30 23 49 13 19 32 47 42 63 l17 27 -78 0 c-72 -1 -81 -3 -97 -25z"/>
<path d="M860 1290 c0 -33 4 -60 9 -60 9 0 129 86 156 111 5 5 -26 9 -78 9
l-87 0 0 -60z"/>
<path d="M2323 1320 c-29 -17 -33 -25 -33 -61 0 -41 0 -41 32 -35 37 7 98 62
98 87 0 33 -50 38 -97 9z"/>
<path d="M4750 1280 c0 -33 4 -60 8 -60 21 0 62 58 62 88 0 30 -2 32 -35 32
l-35 0 0 -60z"/>
<path d="M4878 1333 c-13 -3 -18 -15 -18 -37 0 -39 -26 -76 -75 -106 -35 -22
-35 -22 -35 -95 l0 -74 25 24 c21 22 33 25 103 25 l80 0 4 30 5 30 -104 0
c-96 0 -103 1 -103 20 0 19 7 20 99 20 111 0 117 4 105 68 -5 28 -3 38 12 49
41 30 -31 65 -98 46z"/>
<path d="M2450 1285 c-24 -49 -91 -105 -126 -105 -17 0 -23 -7 -26 -27 -2 -20
-9 -28 -23 -28 -14 0 -21 8 -23 28 -3 24 -7 27 -41 27 -31 0 -49 -10 -108 -59
-74 -63 -84 -77 -82 -119 1 -17 3 -21 6 -9 4 15 21 17 177 17 l173 0 7 42 c5
33 16 50 48 78 22 19 56 49 75 66 42 36 46 73 13 110 -33 34 -45 30 -70 -21z"/>
<path d="M5011 1265 c-1 -59 1 -65 19 -65 26 0 77 -26 83 -42 3 -7 6 29 6 80
l1 92 -54 0 -53 0 -2 -65z"/>
<path d="M1030 1290 c-19 -17 -56 -44 -82 -61 l-46 -30 36 -33 c36 -33 36 -35
44 -132 7 -100 2 -121 -26 -111 -13 5 -16 24 -16 95 0 79 -2 91 -22 108 -62
54 -58 60 -58 -90 l0 -136 91 0 92 0 -7 68 c-7 77 4 124 37 161 22 24 23 33
19 109 -3 52 -8 82 -16 82 -6 0 -27 -14 -46 -30z m48 -43 c4 -20 -25 -34 -40
-19 -15 15 -1 44 19 40 10 -2 19 -11 21 -21z"/>
<path d="M3550 1272 c0 -42 3 -49 28 -60 15 -7 38 -19 52 -27 14 -8 44 -15 68
-15 62 0 92 32 92 100 l0 50 -120 0 -120 0 0 -48z"/>
<path d="M3830 1274 c0 -58 -22 -105 -59 -127 -36 -21 -110 -22 -156 -3 l-35
15 20 -40 c22 -42 37 -51 109 -69 24 -6 54 -22 68 -36 23 -23 24 -28 21 -149
-3 -106 -1 -125 12 -125 8 0 31 -8 50 -18 52 -26 146 -23 187 6 18 13 46 28
63 33 29 11 30 13 30 70 l0 59 -45 0 c-38 0 -45 3 -45 20 0 17 7 20 45 20 l45
0 0 65 c0 61 -1 65 -23 65 -21 0 -23 5 -25 66 -1 42 4 76 13 94 8 16 15 45 15
65 0 34 -1 35 -40 35 l-40 0 0 -236 0 -237 -36 -33 c-61 -58 -139 -41 -116 25
13 38 0 51 -44 44 -29 -5 -34 -3 -34 15 0 30 12 34 106 35 l84 0 0 193 0 194
-85 0 -85 0 0 -46z m110 -10 c16 -42 13 -74 -9 -74 -21 0 -34 42 -24 79 7 28
21 27 33 -5z m-13 -119 c2 -6 -10 -19 -27 -28 -23 -14 -30 -25 -30 -49 0 -33
24 -68 47 -68 7 0 13 -9 13 -21 0 -18 -4 -20 -27 -14 -42 10 -65 38 -70 87 -4
37 -1 49 22 76 27 32 64 41 72 17z"/>
<path d="M670 1242 c0 -6 -16 -16 -35 -22 -35 -11 -35 -12 -35 -71 l0 -59 110
0 110 0 0 50 c0 28 -4 50 -9 50 -5 0 -23 12 -40 26 -32 26 -101 45 -101 26z"/>
<path d="M3400 1210 c-17 -17 -20 -33 -20 -115 0 -88 1 -95 20 -95 17 0 20 7
20 44 0 41 19 74 33 59 4 -3 7 -37 7 -75 0 -37 3 -68 7 -68 10 0 100 59 112
74 9 10 8 15 -4 20 -8 3 -15 13 -15 23 0 9 -12 47 -27 85 l-28 68 -42 0 c-30
0 -49 -6 -63 -20z"/>
<path d="M421 1206 c-20 -23 -4 -170 20 -192 22 -20 26 -49 6 -41 -8 3 -26 -5
-42 -17 -24 -19 -26 -25 -16 -44 13 -24 59 -30 79 -10 7 7 12 40 12 78 0 77
17 110 58 110 27 0 27 0 24 63 l-4 63 -62 2 c-46 2 -66 -2 -75 -12z"/>
<path d="M3305 1179 c-16 -5 -38 -6 -48 -3 -9 3 -31 3 -47 -1 -45 -10 -40 -45
10 -85 24 -19 43 -44 47 -60 4 -23 11 -29 39 -32 l34 -4 0 98 c0 54 -1 98 -2
97 -2 0 -16 -5 -33 -10z"/>
<path d="M2503 1136 c-62 -46 -73 -61 -73 -101 0 -23 3 -24 49 -22 53 2 78
-11 67 -38 -5 -13 -14 -15 -51 -10 l-44 7 17 -41 c9 -22 25 -44 35 -47 30 -10
77 -55 97 -95 13 -25 20 -58 20 -97 0 -32 5 -63 12 -70 8 -8 68 -12 203 -12
l190 0 -5 112 c-4 70 -1 142 7 188 7 41 12 84 13 94 0 18 -1 18 -23 -2 -22
-21 -33 -22 -190 -22 -160 0 -167 1 -167 20 0 19 7 20 130 20 l130 0 0 71 c0
62 2 70 18 67 14 -3 18 -16 20 -71 2 -47 7 -67 16 -67 22 0 44 33 48 75 3 22
8 47 12 56 7 15 -11 18 -166 24 -96 4 -183 6 -193 4 -18 -4 -20 -15 -25 -128
-5 -119 -6 -123 -33 -147 -27 -23 -67 -33 -67 -16 0 4 14 18 31 32 34 28 34
32 31 173 -2 84 -3 87 -25 87 -13 0 -50 -20 -84 -44z m287 -46 c0 -18 -7 -20
-60 -20 -53 0 -60 2 -60 20 0 18 7 20 60 20 53 0 60 -2 60 -20z m-20 -148 c0
-34 -32 -67 -55 -58 -14 5 -14 11 6 46 27 47 49 52 49 12z m214 -38 c9 -3 16
-12 16 -20 0 -11 -21 -14 -96 -14 -92 0 -97 -1 -125 -29 -16 -16 -29 -36 -29
-44 0 -21 41 -29 60 -12 9 8 25 15 34 15 14 0 17 -5 11 -22 -19 -62 -18 -66
15 -83 30 -15 31 -18 17 -33 -22 -22 -65 -2 -78 37 -10 27 -64 60 -77 47 -2
-3 -8 -26 -13 -53 -17 -90 -50 -86 -38 5 10 74 38 138 77 180 30 32 31 32 120
32 50 0 97 -3 106 -6z"/>
<path d="M4527 1160 c4 -16 14 -20 46 -20 35 0 48 -6 84 -42 l43 -42 0 62 0
62 -89 0 c-84 0 -89 -1 -84 -20z"/>
<path d="M3086 1148 c-12 -17 -16 -49 -16 -131 l0 -109 33 29 c19 16 56 35 83
43 27 7 50 14 52 16 8 6 -23 50 -60 85 -32 30 -39 44 -36 64 4 21 1 25 -18 25
-12 0 -30 -10 -38 -22z"/>
<path d="M5017 1153 c-4 -3 -7 -21 -7 -38 0 -28 4 -33 31 -39 58 -11 78 28 33
63 -27 22 -46 26 -57 14z"/>
<path d="M4342 1093 c-153 -3 -173 -5 -168 -19 3 -9 6 -45 6 -80 l0 -64 29 0
c29 0 30 2 33 53 2 38 7 52 18 52 11 0 16 -14 18 -52 3 -48 5 -53 27 -53 13 0
32 -3 42 -6 15 -6 16 -4 6 7 -18 18 -16 70 3 97 12 18 25 22 68 22 68 0 106
-26 106 -73 0 -66 15 -67 74 -2 l54 60 -31 33 c-26 27 -37 32 -71 30 -23 -1
-119 -4 -214 -5z"/>
<path d="M527 1043 c-4 -3 -7 -36 -7 -73 0 -54 -4 -70 -20 -85 -20 -18 -20
-18 5 -41 23 -21 25 -31 25 -103 0 -44 5 -83 10 -86 7 -4 10 63 10 194 0 184
-4 214 -23 194z"/>
<path d="M590 842 l0 -208 43 -46 c24 -25 47 -59 50 -77 6 -31 7 -31 72 -31
l65 0 0 81 c0 70 -2 80 -15 69 -55 -46 -126 91 -95 184 13 40 62 86 91 86 17
0 19 8 19 75 l0 75 -115 0 -115 0 0 -208z m90 -22 c0 -171 -2 -200 -15 -200
-13 0 -15 29 -15 200 0 171 2 200 15 200 13 0 15 -29 15 -200z m78 -293 c2
-18 -1 -27 -11 -27 -16 0 -26 27 -19 48 7 21 27 7 30 -21z"/>
<path d="M4923 1031 c-61 -3 -113 -8 -116 -11 -2 -3 -9 -31 -15 -63 -7 -32
-20 -70 -30 -85 -16 -24 -18 -43 -14 -150 4 -120 5 -123 26 -116 26 8 54 32
69 59 6 11 12 61 12 111 0 105 5 113 90 169 49 31 118 97 99 93 -5 -1 -59 -4
-121 -7z"/>
<path d="M5064 989 c-27 -27 -72 -63 -100 -80 -61 -35 -74 -61 -72 -149 1 -36
-4 -82 -11 -102 -14 -43 -58 -83 -100 -93 -34 -7 -46 -41 -36 -98 l7 -36 31
20 c47 28 59 24 111 -31 26 -27 49 -50 51 -50 2 0 13 15 24 34 19 31 21 48 21
235 l0 201 -24 0 c-34 0 -42 28 -11 36 37 9 75 -19 75 -56 0 -29 2 -30 45 -30
l45 0 0 99 c0 83 -3 100 -17 105 -14 6 -14 8 3 20 10 8 16 17 13 20 -3 3 -27
-17 -55 -45z"/>
<path d="M3603 998 c-28 -28 -33 -42 -33 -80 l0 -47 28 15 c15 8 55 14 95 14
l67 0 0 45 c0 39 -4 46 -28 59 -15 8 -43 17 -62 21 -31 5 -39 2 -67 -27z"/>
<path d="M4394 1012 c-6 -4 -13 -24 -16 -44 l-4 -38 58 0 c57 0 58 0 58 29 0
16 -7 37 -16 45 -16 17 -61 21 -80 8z"/>
<path d="M4647 971 l-48 -52 18 -32 c25 -42 62 -44 81 -4 10 21 12 43 5 84
l-8 56 -48 -52z"/>
<path d="M380 1000 c0 -5 5 -10 10 -10 6 0 10 5 10 10 0 6 -4 10 -10 10 -5 0
-10 -4 -10 -10z"/>
<path d="M4752 985 c0 -16 2 -22 5 -12 2 9 2 23 0 30 -3 6 -5 -1 -5 -18z"/>
<path d="M2030 922 c0 -27 -7 -57 -16 -70 l-15 -22 94 0 c78 0 97 -3 110 -18
21 -23 22 -46 2 -62 -20 -17 -45 -5 -45 21 0 21 -3 21 -109 17 -121 -5 -149
-16 -176 -69 -9 -17 -15 -40 -13 -52 3 -21 8 -22 163 -27 144 -5 163 -7 191
-27 51 -36 59 -52 64 -127 l5 -71 65 -3 c43 -2 69 -8 76 -18 10 -13 12 -13 18
1 4 12 23 15 84 15 l78 0 2 74 c1 47 -3 86 -13 109 -8 20 -15 62 -15 94 0 88
-40 142 -117 158 -32 6 -33 6 -33 -29 0 -25 5 -36 18 -40 39 -13 67 -55 67
-103 0 -38 -5 -49 -33 -74 -18 -16 -44 -29 -58 -29 -40 0 -84 29 -100 65 -19
47 -8 91 32 123 41 32 44 67 13 133 -39 81 -35 79 -196 79 l-143 0 0 -48z
m198 -24 c-6 -18 -28 -21 -28 -4 0 9 7 16 16 16 9 0 14 -5 12 -12z m130 -365
c-2 -10 -12 -18 -23 -18 -11 0 -21 8 -23 18 -3 13 3 17 23 17 20 0 26 -4 23
-17z"/>
<path d="M2395 940 c9 -16 20 -30 25 -30 14 0 13 7 -6 35 -23 35 -38 31 -19
-5z"/>
<path d="M3255 954 c-64 -14 -106 -28 -116 -40 -10 -12 6 -14 95 -14 l106 0 0
30 c0 27 -3 30 -32 29 -18 -1 -42 -3 -53 -5z"/>
<path d="M3380 930 l0 -30 65 0 c58 0 65 -2 65 -20 0 -18 -7 -20 -65 -20 l-65
0 0 -50 c0 -48 1 -50 28 -50 19 0 40 14 73 48 42 43 47 54 50 101 4 47 3 50
-10 32 -19 -29 -77 -29 -86 -1 -4 13 -15 20 -31 20 -20 0 -24 -5 -24 -30z"/>
<path d="M80 900 c-15 -15 -20 -33 -20 -69 l0 -50 140 -3 140 -3 0 73 0 72
-120 0 c-107 0 -122 -2 -140 -20z"/>
<path d="M3962 890 l-34 -5 25 -23 c21 -20 26 -21 36 -8 22 26 9 41 -27 36z"/>
<path d="M4180 830 c0 -64 3 -66 43 -32 21 19 24 82 3 82 -8 0 -21 3 -30 6
-14 5 -16 -3 -16 -56z"/>
<path d="M4280 856 c0 -67 -54 -117 -142 -131 -21 -3 -49 -16 -62 -28 l-25
-22 10 -130 c5 -72 9 -204 8 -295 0 -91 -1 -184 0 -207 l1 -43 48 0 c43 0 52
4 87 40 32 33 36 41 25 55 -7 8 -27 15 -45 15 -18 0 -44 9 -57 20 -43 33 -50
66 -46 223 3 138 4 147 27 171 19 20 34 26 66 26 56 0 91 -28 100 -80 6 -34
11 -40 31 -40 23 0 24 3 24 73 0 39 3 89 6 109 6 33 3 41 -25 65 -47 42 -34
71 20 43 39 -22 48 -59 42 -178 l-6 -112 34 0 c27 0 40 7 62 34 25 32 27 42
27 122 l0 87 -70 73 c-44 45 -72 83 -76 102 -5 24 -12 31 -35 34 -27 4 -29 2
-29 -26z m-43 -242 c8 -21 -13 -42 -28 -27 -13 13 -5 43 11 43 6 0 13 -7 17
-16z"/>
<path d="M4530 660 l0 -231 -25 -24 c-20 -21 -34 -25 -80 -25 l-55 0 0 -45 c0
-68 22 -108 87 -160 52 -42 62 -46 100 -42 69 7 102 -35 36 -45 -21 -3 -21 -5
13 -46 29 -35 42 -42 71 -42 l34 0 -6 253 c-4 138 -8 258 -11 265 -2 7 -19 19
-38 27 -23 10 -36 23 -38 37 -2 13 -15 28 -30 36 -31 14 -36 30 -14 38 18 7
64 -18 95 -51 12 -13 27 -22 32 -19 11 7 12 194 0 212 -6 11 -16 9 -50 -8 -39
-21 -43 -21 -66 -6 -28 18 -45 68 -26 74 9 3 9 7 0 18 -6 8 -15 14 -20 14 -5
0 -9 -104 -9 -230z m143 -144 c19 -15 23 -41 7 -51 -5 -3 -10 -45 -10 -93 0
-103 -19 -144 -77 -169 -91 -37 -213 40 -213 135 0 41 20 39 31 -2 15 -53 81
-106 134 -106 16 0 38 12 56 29 28 28 29 34 29 115 0 46 -4 88 -10 91 -16 10
-12 45 5 45 8 0 15 5 15 10 0 13 11 12 33 -4z m-98 -186 c0 -8 -10 -16 -22
-18 -18 -3 -23 2 -23 18 0 16 5 21 23 18 12 -2 22 -10 22 -18z"/>
<path d="M4370 871 c0 -11 93 -125 110 -136 6 -4 10 20 10 69 l0 76 -60 0
c-33 0 -60 -4 -60 -9z"/>
<path d="M777 840 c-51 -41 -47 -138 6 -171 l32 -19 7 38 c4 20 7 67 7 105 1
75 -7 82 -52 47z"/>
<path d="M862 788 l3 -73 70 -5 c77 -6 82 -11 84 -92 1 -35 3 -38 31 -38 29 0
30 2 30 46 0 37 -3 45 -15 40 -9 -3 -15 0 -15 9 0 8 5 15 10 15 6 0 10 5 10
11 0 6 -7 9 -15 5 -13 -4 -15 8 -15 74 l0 80 -90 0 -91 0 3 -72z m133 32 c0
-22 -29 -18 -33 3 -3 14 1 18 15 15 10 -2 18 -10 18 -18z"/>
<path d="M1080 802 c0 -58 1 -60 39 -85 34 -23 96 -112 103 -149 7 -32 -26 -8
-62 47 l-40 60 0 -72 c0 -57 3 -73 14 -73 8 0 36 -24 61 -53 l47 -53 43 43
c39 39 47 43 93 43 l51 0 -15 35 c-7 19 -14 55 -14 81 0 35 -7 56 -26 81 -14
18 -31 33 -37 33 -7 0 -24 8 -37 18 -14 9 -41 22 -60 29 -31 11 -37 10 -67
-12 -42 -33 -55 -13 -17 26 33 35 68 46 89 29 12 -10 18 -10 30 0 20 17 38 4
163 -119 66 -65 110 -101 124 -101 20 0 19 3 -14 38 -20 20 -54 66 -76 102
-60 96 -78 104 -249 108 l-143 4 0 -60z m243 -172 c30 0 40 -10 26 -27 -18
-21 -76 -17 -89 7 -15 27 -4 43 20 30 10 -5 29 -10 43 -10z"/>
<path d="M3060 756 c0 -65 4 -107 11 -112 6 -3 9 -14 6 -23 -3 -13 3 -16 32
-13 l36 4 0 71 0 72 98 3 97 3 0 49 0 50 -140 0 -140 0 0 -104z"/>
<path d="M3603 840 c-28 -17 -33 -25 -33 -60 l0 -40 98 0 97 0 -3 60 -4 60
-61 0 c-44 0 -71 -6 -94 -20z"/>
<path d="M380 776 l0 -74 55 -4 55 -3 0 57 c0 64 -14 80 -77 92 l-33 6 0 -74z"/>
<path d="M1717 836 c-3 -8 -3 -55 0 -105 l6 -91 49 0 49 0 -7 63 c-7 68 -16
90 -47 125 -23 25 -42 28 -50 8z"/>
<path d="M3498 771 c-30 -35 -59 -51 -91 -51 -24 0 -25 -3 -29 -70 -4 -68 -5
-72 -50 -117 -31 -30 -51 -44 -62 -40 -24 9 -19 36 8 47 44 16 66 57 66 121 0
47 -3 59 -16 59 -11 0 -15 -9 -14 -32 5 -96 -5 -113 -77 -123 l-48 -6 -1 -59
c-1 -68 -21 -107 -62 -116 -52 -11 -52 -12 -52 -69 0 -30 2 -55 3 -55 2 0 34
36 71 80 51 60 81 86 124 106 31 15 69 36 84 46 19 13 45 18 102 18 l76 0 0
145 c0 80 -2 145 -4 145 -2 0 -15 -13 -28 -29z m-62 -148 c-3 -8 -6 -17 -6
-19 0 -2 -9 -4 -20 -4 -22 0 -29 35 -7 43 20 7 39 -4 33 -20z"/>
<path d="M198 743 l-138 -4 0 -121 0 -122 42 -43 c23 -24 46 -43 50 -43 4 0 8
63 8 140 0 163 -2 160 104 160 59 0 66 -2 66 -20 0 -18 -7 -20 -65 -20 l-65 0
0 -55 c0 -30 4 -55 9 -55 4 0 6 10 4 23 -7 35 18 50 77 45 l50 -3 0 63 c0 34
-1 61 -2 60 -2 -1 -65 -4 -140 -5z"/>
<path d="M5030 706 l0 -46 46 0 45 0 -3 43 c-3 42 -3 42 -45 45 l-43 3 0 -45z"/>
<path d="M2377 728 c-27 -22 -31 -61 -7 -91 26 -32 62 -35 90 -7 55 55 -21
144 -83 98z"/>
<path d="M3180 664 l0 -55 48 3 47 3 5 53 6 52 -53 0 -53 0 0 -56z"/>
<path d="M3570 598 c1 -97 2 -104 24 -120 23 -17 24 -17 19 2 -3 12 4 28 21
44 24 25 31 26 131 26 l105 0 0 53 c0 88 -17 97 -179 97 l-121 0 0 -102z"/>
<path d="M860 627 l0 -45 63 -4 c34 -3 63 -5 63 -4 1 1 -1 21 -5 46 l-6 45
-57 3 -58 3 0 -44z"/>
<path d="M3910 610 l0 -60 50 0 50 0 0 54 c0 58 -8 66 -72 66 -27 0 -28 -1
-28 -60z"/>
<path d="M380 566 c0 -86 2 -96 18 -96 10 0 24 6 30 12 10 10 17 10 32 0 24
-14 55 -5 41 12 -6 7 -11 45 -13 86 l-3 75 -52 3 -53 3 0 -95z"/>
<path d="M1440 607 c4 -23 14 -54 21 -69 14 -28 14 -28 123 -28 l108 0 37 38
36 37 -45 3 c-25 1 -70 -4 -100 -12 -46 -12 -60 -12 -86 -1 -17 7 -34 18 -38
24 -4 5 -19 19 -35 30 l-28 20 7 -42z"/>
<path d="M5030 584 c0 -27 7 -41 25 -56 14 -11 25 -26 25 -34 0 -17 -5 -17
-31 -4 -17 9 -19 7 -19 -17 0 -15 -11 -51 -24 -80 l-24 -51 25 -24 c34 -31 53
-71 53 -108 0 -20 5 -30 15 -30 28 0 15 -26 -30 -60 l-45 -34 42 -43 c23 -24
50 -43 60 -43 17 0 18 19 18 310 l0 310 -45 0 -45 0 0 -36z"/>
<path d="M528 545 l-3 -65 58 0 c60 0 68 9 51 55 -6 14 -85 75 -97 75 -3 0 -7
-29 -9 -65z"/>
<path d="M295 592 c-35 -3 -43 -7 -52 -32 -6 -17 -18 -30 -27 -30 -13 0 -16
-14 -16 -79 0 -79 0 -80 -27 -84 -16 -2 14 -5 65 -6 85 -1 92 -3 92 -21 0 -18
-7 -20 -61 -20 l-60 0 3 -32 c3 -33 4 -33 61 -36 41 -2 59 1 62 10 3 8 4 86 3
173 l-3 160 -40 -3z"/>
<path d="M1818 578 c7 -7 12 -39 12 -75 0 -79 22 -125 86 -182 l47 -41 86 0
c47 0 150 -3 228 -7 139 -6 142 -6 137 14 -3 12 -1 24 5 27 7 5 6 15 -5 32
-14 21 -24 24 -73 24 -78 0 -101 17 -101 78 0 45 -1 46 -16 24 -22 -32 -39
-28 -97 26 -101 93 -97 92 -215 92 -83 0 -103 -3 -94 -12z m127 -18 c9 -10 20
-34 24 -51 5 -25 25 -47 86 -96 44 -35 91 -74 105 -86 l25 -22 -27 -3 c-21 -3
-46 13 -118 74 -51 42 -96 89 -102 103 -19 49 -25 55 -55 63 -17 4 -36 15 -43
23 -21 25 82 21 105 -5z"/>
<path d="M2130 550 c41 -52 48 -55 71 -34 24 22 24 29 -1 54 -13 13 -33 20
-61 20 l-41 0 32 -40z"/>
<path d="M2650 491 l0 -81 45 0 45 0 0 75 c0 57 -3 75 -14 75 -7 0 -28 3 -45
6 l-31 7 0 -82z"/>
<path d="M2779 563 c-1 -5 -2 -41 -3 -80 l-1 -73 123 0 122 0 0 74 0 73 -37 7
c-53 8 -203 8 -204 -1z"/>
<path d="M3074 558 c-6 -7 -8 -41 -6 -75 4 -62 4 -63 33 -63 37 0 51 27 47 93
-3 50 -4 52 -34 55 -17 2 -35 -3 -40 -10z"/>
<path d="M860 443 l0 -93 59 0 c69 0 71 3 71 115 l0 70 -65 0 -65 1 0 -93z
m90 13 c0 -18 -58 -32 -72 -18 -17 17 1 32 38 32 23 0 34 -5 34 -14z"/>
<path d="M1741 505 l-44 -35 -118 0 c-95 0 -117 -3 -113 -13 3 -8 -2 -20 -11
-27 -12 -10 -18 -10 -30 0 -9 7 -14 19 -11 27 4 9 -5 13 -35 13 -32 0 -46 -6
-70 -32 -16 -18 -29 -37 -29 -43 0 -15 183 -195 198 -195 8 0 12 16 12 45 0
25 5 45 10 45 6 0 10 -20 10 -46 l0 -45 48 3 47 3 5 100 c3 55 9 106 13 113
10 14 86 16 89 2 4 -30 0 -35 -27 -40 l-30 -5 -3 -93 -3 -92 126 0 c77 0 125
-4 125 -10 0 -6 26 -10 59 -10 51 0 59 3 64 21 7 24 33 20 31 -5 -2 -14 12
-16 105 -16 90 0 111 -3 141 -21 51 -31 89 -69 111 -112 19 -37 20 -37 82 -37
61 1 61 1 31 14 -51 22 -74 61 -74 122 0 37 -4 54 -13 54 -7 0 -20 9 -30 20
-15 18 -29 21 -95 20 -42 0 -143 2 -224 5 l-147 6 -43 39 c-74 65 -99 109
-106 189 l-7 71 -44 -35z m17 -233 c3 -16 -2 -22 -17 -22 -24 0 -35 15 -27 36
9 23 40 13 44 -14z"/>
<path d="M1020 444 c0 -92 -9 -120 -43 -133 -20 -8 -22 -14 -19 -75 3 -59 6
-68 27 -76 13 -5 26 -14 30 -19 3 -6 18 -11 33 -11 l27 0 3 200 4 200 -31 0
-31 0 0 -86z"/>
<path d="M1120 438 c0 -68 2 -79 22 -92 12 -9 38 -16 58 -16 43 -1 105 -45 77
-56 -22 -8 -23 -71 -1 -95 10 -11 14 -25 9 -36 -6 -16 -10 -14 -36 15 -23 25
-29 42 -29 77 0 43 -1 45 -30 45 -17 0 -42 7 -55 16 l-25 16 0 -91 0 -91 71 0
c84 0 120 -15 189 -77 44 -39 51 -43 56 -26 4 10 21 33 37 50 29 31 36 33 95
33 59 0 66 -2 98 -34 19 -19 34 -43 34 -55 0 -19 6 -21 50 -21 46 0 51 3 61
28 6 15 28 48 50 74 l40 48 -217 0 -217 0 -100 98 c-83 81 -140 145 -224 252
-10 12 -12 0 -13 -62z"/>
<path d="M3660 495 c-10 -13 -10 -19 5 -35 14 -15 31 -20 74 -20 62 0 97 14
119 48 l14 22 -100 0 c-77 0 -102 -3 -112 -15z"/>
<path d="M3900 487 c0 -27 -33 -61 -73 -76 -16 -6 -60 -11 -98 -11 -65 0 -69
-1 -69 -22 1 -51 20 -103 50 -132 29 -30 34 -31 115 -31 75 0 87 -3 107 -23
21 -20 23 -32 22 -107 l-1 -85 39 0 38 0 0 215 c0 144 -4 229 -12 255 -13 40
-13 40 -65 40 -49 0 -53 -2 -53 -23z m-132 -160 c4 -21 -25 -34 -40 -19 -8 8
-8 16 2 27 16 19 34 15 38 -8z"/>
<path d="M4130 484 c-21 -54 -16 -59 50 -56 48 3 60 7 60 21 0 58 -90 88 -110
35z"/>
<path d="M0 382 l0 -103 51 52 51 52 -51 51 -51 51 0 -103z"/>
<path d="M3390 462 c-72 -33 -82 -70 -19 -68 43 1 45 -1 126 -100 l32 -39 -2
105 -2 105 -60 2 c-33 1 -67 -1 -75 -5z"/>
<path d="M3570 229 l0 -229 33 0 c26 0 40 9 75 49 32 38 50 51 75 53 28 3 32
7 35 34 3 27 -1 32 -25 37 -79 16 -133 88 -133 177 0 49 -3 59 -30 82 l-30 26
0 -229z"/>
<path d="M515 429 c-7 -10 0 -76 12 -126 5 -20 11 -23 59 -23 l54 0 0 80 0 80
-59 0 c-33 0 -63 -5 -66 -11z"/>
<path d="M690 395 l0 -45 65 0 65 0 0 45 0 45 -65 0 -65 0 0 -45z"/>
<path d="M380 355 l0 -75 68 1 c37 0 61 3 55 6 -7 2 -13 11 -13 19 0 8 -4 14
-9 14 -11 0 -31 55 -31 86 0 21 -5 24 -35 24 l-35 0 0 -75z"/>
<path d="M4769 392 c-25 -22 -29 -32 -24 -55 6 -22 13 -27 37 -27 32 0 78 20
96 43 10 11 8 20 -9 41 -27 34 -60 33 -100 -2z"/>
<path d="M3244 382 c-22 -16 -68 -64 -102 -106 -59 -73 -62 -80 -62 -132 l0
-54 93 0 c90 0 94 1 122 30 27 28 32 29 129 32 l101 3 3 27 c2 18 -3 30 -16
37 -10 5 -38 36 -62 68 -50 67 -57 73 -87 73 -16 0 -23 -6 -23 -18 0 -21 -95
-112 -116 -112 -29 0 -13 41 26 68 44 30 56 55 43 90 l-9 23 -40 -29z"/>
<path d="M4120 298 c0 -107 12 -131 68 -139 35 -4 53 -16 100 -62 32 -31 61
-57 65 -57 4 0 27 18 51 40 l44 41 -52 52 c-55 55 -66 82 -66 163 0 42 -1 44
-30 44 -28 0 -29 -1 -32 -57 -4 -81 -28 -85 -28 -4 l0 61 -60 0 -60 0 0 -82z
m247 -114 c2 -5 -3 -19 -11 -29 -14 -18 -16 -19 -31 -4 -15 15 -15 17 0 33 18
17 36 17 42 0z"/>
<path d="M2490 305 l0 -65 60 0 60 0 0 65 0 65 -60 0 -60 0 0 -65z"/>
<path d="M2646 293 c4 -43 7 -79 8 -80 1 -1 21 15 44 36 36 33 42 44 42 80 l0
41 -50 0 -51 0 7 -77z"/>
<path d="M2770 316 c0 -51 -2 -55 -50 -100 -27 -25 -54 -46 -60 -46 -5 0 -10
-16 -10 -35 0 -19 4 -35 9 -35 13 0 118 116 147 161 15 24 32 39 44 39 34 0
36 -29 3 -58 -17 -15 -60 -62 -97 -104 -37 -43 -76 -80 -87 -83 -12 -4 -19
-15 -19 -31 0 -24 1 -24 94 -24 108 0 106 -2 106 92 0 52 4 63 28 87 22 22 40
29 90 35 l62 7 0 74 0 75 -130 0 -130 0 0 -54z"/>
<path d="M115 330 c-4 -6 -1 -17 5 -25 17 -21 -4 -45 -39 -45 -17 0 -38 -11
-54 -28 -24 -25 -27 -36 -27 -92 0 -63 1 -66 41 -102 35 -32 49 -38 85 -38
l44 0 -1 103 c-1 56 -3 94 -6 85 -3 -12 -14 -18 -34 -18 -16 0 -29 -4 -29 -10
0 -11 -33 -14 -43 -4 -11 11 13 44 32 44 28 0 78 54 83 89 3 24 1 31 -12 31
-9 0 -21 5 -27 11 -8 8 -13 8 -18 -1z"/>
<path d="M4882 310 l-23 -19 26 -17 c25 -17 35 -54 13 -54 -6 0 -20 8 -30 17
-10 9 -41 20 -68 23 l-50 6 0 -88 0 -88 98 0 c98 0 98 0 135 34 32 29 37 40
37 78 0 50 -10 66 -59 103 -41 30 -49 30 -79 5z"/>
<path d="M678 283 c-7 -15 -22 -32 -33 -38 -18 -9 -20 -18 -17 -82 l3 -73 98
0 98 0 0 104 -1 104 -44 6 c-78 10 -90 8 -104 -21z"/>
<path d="M860 200 c0 -81 -3 -110 -12 -110 -7 0 0 -7 15 -15 16 -8 46 -28 67
-45 31 -24 47 -30 89 -30 l51 0 0 41 0 42 -65 -7 c-87 -9 -93 2 -86 137 l6 97
-32 0 -33 0 0 -110z"/>
<path d="M380 257 c0 -3 27 -32 59 -65 33 -34 62 -70 66 -81 5 -17 15 -21 45
-21 l38 0 4 73 3 72 -92 1 c-59 1 -98 6 -108 14 -8 7 -15 10 -15 7z"/>
<path d="M210 105 c0 -58 2 -105 5 -105 3 0 17 7 31 16 18 12 37 15 69 11 27
-4 47 -2 51 4 3 6 27 24 51 39 l45 29 -52 55 -53 56 -73 0 -74 0 0 -105z"/>
<path d="M2490 153 c0 -61 18 -87 75 -107 l46 -15 -3 82 -3 82 -57 3 -58 3 0
-48z"/>
<path d="M3835 163 c-14 -13 -16 -27 -11 -67 3 -28 6 -61 6 -73 0 -20 5 -23
39 -23 35 0 39 3 45 31 12 61 7 108 -14 129 -24 24 -43 25 -65 3z"/>
<path d="M2908 153 c-15 -17 -19 -31 -33 -115 l-6 -38 86 0 85 0 0 85 0 85
-58 0 c-44 0 -63 -5 -74 -17z"/>
<path d="M950 115 c0 -8 7 -15 15 -15 8 0 15 7 15 15 0 8 -7 15 -15 15 -8 0
-15 -7 -15 -15z"/>
<path d="M2050 65 l0 -65 65 0 66 0 -3 62 -3 63 -62 3 -63 3 0 -66z"/>
<path d="M2220 66 l0 -66 86 0 86 0 -20 32 c-24 38 -85 84 -124 94 l-28 6 0
-66z"/>
<path d="M1876 69 c-25 -28 -46 -55 -46 -60 0 -5 43 -9 95 -9 105 0 99 -5 89
74 l-7 46 -42 0 c-39 0 -47 -5 -89 -51z"/>
<path d="M3312 80 l-23 -30 -104 0 -105 0 0 -25 0 -25 219 0 c244 0 236 -3
225 71 l-7 39 -91 0 c-91 0 -93 0 -114 -30z"/>
<path d="M4425 50 l-49 -50 109 0 110 0 -52 50 c-28 28 -55 50 -60 50 -5 0
-31 -22 -58 -50z"/>
<path d="M1110 40 c0 -33 3 -40 20 -40 17 0 20 7 20 40 0 33 -3 40 -20 40 -17
0 -20 -7 -20 -40z"/>
<path d="M1188 40 l17 -40 73 0 c41 0 72 4 72 10 0 5 -19 23 -42 40 -32 23
-52 30 -89 30 l-48 0 17 -40z"/>
<path d="M1490 50 c-41 -41 -28 -50 70 -50 98 0 111 9 70 50 -28 28 -112 28
-140 0z"/>
<path d="M3715 30 l-29 -30 52 0 c51 0 52 1 52 30 0 25 -4 30 -23 30 -13 0
-36 -13 -52 -30z"/>
<path d="M454 39 c-17 -5 -37 -16 -44 -24 -11 -13 -1 -15 79 -15 82 0 91 2 91
19 0 30 -60 39 -126 20z"/>
<path d="M4750 25 l0 -25 142 0 142 0 -34 25 c-31 23 -42 25 -142 25 l-108 0
0 -25z"/>
<path d="M620 20 c0 -19 7 -20 138 -20 l137 0 -30 20 c-25 17 -47 20 -137 20
-101 0 -108 -1 -108 -20z"/>
<path d="M4240 20 l-25 -20 48 0 c49 0 61 12 28 30 -25 13 -21 13 -51 -10z"/>
</g>
</svg>